<?xml version="1.0" encoding="UTF-8" standalone="no"?>
<!-- Created with Inkscape (http://www.inkscape.org/) -->

<svg
   xmlns:dc="http://purl.org/dc/elements/1.1/"
   xmlns:cc="http://creativecommons.org/ns#"
   xmlns:rdf="http://www.w3.org/1999/02/22-rdf-syntax-ns#"
   xmlns:svg="http://www.w3.org/2000/svg"
   xmlns="http://www.w3.org/2000/svg"
   xmlns:sodipodi="http://sodipodi.sourceforge.net/DTD/sodipodi-0.dtd"
   xmlns:inkscape="http://www.inkscape.org/namespaces/inkscape"
   width="100mm"
   height="70mm"
   viewBox="0 0 210 297"
   version="1.1"
   id="svg8"
   inkscape:version="0.92.1 r15371"
   sodipodi:docname="iall.svg">
  <defs
     id="defs2" />
  <sodipodi:namedview
     id="base"
     pagecolor="#ffffff"
     bordercolor="#666666"
     borderopacity="1.0"
     inkscape:pageopacity="0.0"
     inkscape:pageshadow="2"
     inkscape:zoom="1.0044492"
     inkscape:cx="-138.37239"
     inkscape:cy="193.20243"
     inkscape:document-units="mm"
     inkscape:current-layer="layer1"
     showgrid="false"
     showguides="true"
     inkscape:guide-bbox="true"
     inkscape:window-width="1920"
     inkscape:window-height="1017"
     inkscape:window-x="-8"
     inkscape:window-y="-8"
     inkscape:window-maximized="1"
     inkscape:snap-others="false"
     inkscape:snap-grids="false"
     inkscape:snap-to-guides="false">
    <sodipodi:guide
       position="81.282725,47.77954"
       orientation="0,1"
       id="guide5229"
       inkscape:locked="false" />
    <sodipodi:guide
       position="8.9965337,30.601786"
       orientation="0,1"
       id="guide5231"
       inkscape:locked="false" />
    <sodipodi:guide
       position="14.947481,311.34776"
       orientation="1,0"
       id="guide5233"
       inkscape:locked="false" />
    <sodipodi:guide
       position="70.233808,35.124001"
       orientation="1,0"
       id="guide5235"
       inkscape:locked="false" />
    <sodipodi:guide
       position="9.3875016,-30.425564"
       orientation="1,0"
       id="guide5264"
       inkscape:locked="false" />
    <sodipodi:guide
       position="89.612542,223.52335"
       orientation="0,1"
       id="guide5266"
       inkscape:locked="false" />
  </sodipodi:namedview>
  <metadata
     id="metadata5">
    <rdf:RDF>
      <cc:Work
         rdf:about="">
        <dc:format>image/svg+xml</dc:format>
        <dc:type
           rdf:resource="http://purl.org/dc/dcmitype/StillImage" />
        <dc:title></dc:title>
      </cc:Work>
    </rdf:RDF>
  </metadata>
  <g
     inkscape:label="Layer 1"
     inkscape:groupmode="layer"
     id="layer1">
    <rect
       style="opacity:1;fill:#f2f2f2;fill-opacity:1;stroke:none;stroke-width:0.62871939;stroke-linecap:round;stroke-linejoin:round;stroke-miterlimit:4;stroke-dasharray:none;stroke-opacity:0.61176471"
       id="rect4502"
       width="237.62625"
       height="384.47928"
       x="-265.52429"
       y="-87.564156"
       ry="0.32420924"
       transform="rotate(-90)" />
    <path
       inkscape:connector-curvature="0"
       id="path5120"
       style="font-style:normal;font-weight:normal;font-size:medium;line-height:1.25;font-family:sans-serif;letter-spacing:0px;word-spacing:0px;fill:#000000;fill-opacity:1;stroke:none;stroke-width:5.55042839"
       d="m 81.006533,210.11932 q 0,13.81615 -3.965501,24.39609 -3.965505,10.57994 -10.66909,17.42579 -7.931004,8.215 -17.467095,11.70016 -9.441672,3.48515 -24.076263,3.48515 H -25.023448 V 81.790853 h 41.637776 q 15.389927,0 23.037681,1.493631 7.647753,1.493643 14.634594,6.223509 7.74217,5.352207 11.235589,13.816157 3.493417,8.33949 3.493417,20.03965 0,13.19382 -5.098502,22.52906 -5.098504,9.21077 -13.596009,14.81191 v 0.99576 q 14.256925,3.85856 22.471182,16.55449 8.214253,12.57146 8.214253,31.8643 z M 49.565765,126.60003 q 0,-6.72139 -1.6995,-11.32677 -1.699502,-4.60539 -5.476171,-7.46819 -4.437588,-3.36069 -10.763508,-4.10752 -6.325919,-0.87127 -15.673175,-0.87127 H -6.3289368 v 53.52204 H 17.841748 q 8.780753,0 13.973673,-1.12022 5.192921,-1.2447 9.630508,-4.97881 4.437582,-3.73408 6.231502,-9.58417 1.888334,-5.97456 1.888334,-14.06509 z m 11.990922,84.51504 q 0,-11.20228 -2.54925,-17.79918 -2.549249,-6.59692 -9.252838,-11.2023 -4.532004,-3.11175 -11.046759,-3.98304 -6.420337,-0.99575 -15.673175,-0.99575 H -6.3289368 v 68.95631 H 18.408248 q 12.274174,0 20.110762,-1.61811 7.836587,-1.74258 12.840674,-6.22349 5.287334,-4.85433 7.74217,-11.07783 2.454833,-6.22349 2.454833,-16.05661 z" />
    <path
       inkscape:connector-curvature="0"
       id="path5122"
       style="font-style:normal;font-weight:normal;font-size:medium;line-height:1.25;font-family:sans-serif;letter-spacing:0px;word-spacing:0px;fill:#000000;fill-opacity:1;stroke:none;stroke-width:6.30971146"
       d="m 178.11899,252.71201 q -10.85795,8.6861 -18.69453,11.90315 -7.74213,3.37791 -15.48429,3.37791 -11.51885,0 -21.14935,-5.62986 -9.63051,-5.79071 -16.52293,-17.37215 -6.892423,-11.58144 -10.763503,-29.27534 -3.776667,-17.69385 -3.776667,-41.33929 0,-42.94788 13.97367,-68.52356 13.97368,-25.736567 38.23878,-25.736567 9.15837,0 17.93912,4.343058 8.8752,4.343033 16.2397,10.616305 v 33.618384 h -1.03857 q -8.78076,-11.4206 -17.37272,-16.88961 -8.49745,-5.46902 -16.52286,-5.46902 -15.7676,0 -24.45394,18.0156 -8.59192,18.01555 -8.59192,50.02541 0,32.0098 8.59192,49.70368 8.59192,17.69387 24.45394,17.69387 5.57058,0 11.04672,-2.41278 5.57058,-2.41282 10.10257,-6.2733 3.58784,-3.05621 7.36454,-7.2384 3.87104,-4.34304 5.38175,-6.43413 h 1.03857 z" />
    <g
       id="g5274"
       transform="matrix(1,0,0,1.7118989,0,-128.80904)">
      <path
         inkscape:connector-curvature="0"
         id="path5103"
         d="m 267.34575,91.692311 c -0.93273,0 -5.64956,1.290421 -7.45132,2.038357 -6.29696,2.61388 -13.63987,10.545622 -16.41693,17.733262 -1.53483,3.97325 -2.3829,11.11661 -1.59057,13.40731 0.19873,0.57508 0.57312,0.63596 2.47711,0.39389 7.74746,-0.98583 14.49528,-5.84305 19.29117,-13.88353 2.28825,-3.83635 3.60953,-7.91641 4.11776,-12.721912 0.40757,-3.854594 0.21619,-6.967359 -0.42722,-6.967359 z M 222.75423,123.7163 c -9.37859,-0.0267 -16.92585,3.06507 -23.0038,9.4263 -7.60372,7.95813 -11.30073,18.72912 -11.30431,32.92969 -0.004,17.60579 4.62803,32.96565 14.71206,48.77368 5.68708,8.9152 12.15243,14.94259 17.2112,16.04648 3.3173,0.7239 6.48121,0.0267 13.40637,-2.95071 8.40527,-3.61388 13.14043,-3.55565 22.46425,0.26926 5.56794,2.28415 7.79054,2.86953 10.73267,2.83724 2.72249,-0.0306 5.33013,-1.0358 8.21753,-3.16882 5.59162,-4.1306 12.24422,-12.83145 16.66766,-21.79883 1.11003,-2.25027 2.95025,-6.80161 4.00946,-9.73782 h -7.27882 c 0.007,0.006 -3.84148,0.16441 -3.84148,0.16441 -0.71347,2.91135 -1.62908,6.10288 -3.06901,8.37499 -5.34619,8.29641 -9.50621,12.56323 -14.81662,14.78726 -2.62359,1.02929 -5.76961,-1.45676 -10.73453,-3.3934 -8.31414,-3.24297 -12.72419,-5.35275 -20.21912,-2.2887 -6.17521,2.52443 -8.53161,4.35199 -11.48962,3.73824 -4.51097,-0.93593 -6.00058,-2.23236 -11.07174,-9.79115 -7.49083,-11.16542 -11.22514,-20.52426 -12.38881,-32.48268 l 50.26611,-0.61851 c 0.0194,-0.002 0.0311,-0.0118 0.0501,-0.0118 h 29.50442 c -0.96351,-3.06851 -1.42508,-6.38778 -1.42007,-10.06493 0.0117,-6.72123 1.37387,-11.61043 4.78771,-17.15914 1.42887,-2.32251 5.60158,-7.03103 8.14727,-9.19485 l 1.28367,-1.09039 -2.56932,-2.89285 c -6.31227,-7.10499 -14.04489,-10.60032 -23.46715,-10.61237 -6.38014,-0.007 -8.37418,0.46931 -18.1579,4.33262 -5.10404,2.01545 -6.84831,1.88542 -13.26595,-0.98357 -6.43157,-2.87528 -8.57919,-3.42822 -13.36224,-3.44029 z m 44.50023,11.38373 c 1.88831,-0.28661 6.05674,0.49061 6.05674,0.49061 2.32015,0.63425 1.63809,0.78589 4.42283,2.12692 l -3.39722,4.09746 c -2.86583,4.00872 -3.86802,6.90686 -5.10667,10.25699 -0.68867,4.80759 -1.18797,5.9754 -1.05056,9.38741 -2.11382,-0.0819 -18.21159,-0.10309 -18.21159,-0.10309 l -49.09568,-0.10614 c 2.42358,-11.10444 2.65871,-13.02618 8.59971,-19.35822 5.60558,-4.15637 6.38829,-5.36825 14.75118,-5.34552 4.26504,1.86591 5.52861,1.81966 11.26364,4.25747 5.72264,2.43251 11.08813,1.71861 15.63942,0.009 8.72412,-3.27554 5.01648,-1.88913 9.99565,-4.37351 z"
         style="fill:#000000;stroke:none;stroke-width:0.38651454"
         sodipodi:nodetypes="ccccccccccscccccccccccccccccccscccccccsccccccccccccccccc" />
      <path
         sodipodi:nodetypes="cccccsccc"
         inkscape:connector-curvature="0"
         id="path5103-2"
         d="m 215.04166,91.675966 c 0.93273,0 5.64956,1.29042 7.45132,2.038356 6.29697,2.613881 13.63991,10.545618 16.41696,17.733268 1.53484,3.97325 2.38288,11.1166 1.59054,13.40731 -0.19873,0.57508 -0.57308,0.63595 -2.47707,0.39388 -7.74746,-0.98583 -14.49532,-5.84304 -19.29117,-13.88352 -2.28824,-3.83636 -3.60957,-7.91642 -4.11779,-12.721922 -0.40759,-3.854591 -0.2162,-6.967359 0.42721,-6.967359 z"
         style="fill:#000000;stroke:none;stroke-width:0.38651454" />
    </g>
    <rect
       style="opacity:1;fill:#000000;fill-opacity:1;stroke:none;stroke-width:1.05008614;stroke-linecap:round;stroke-linejoin:round;stroke-miterlimit:4;stroke-dasharray:none;stroke-opacity:0.61176471"
       id="rect5237"
       width="20.133343"
       height="191.98579"
       x="-65.112373"
       y="73.538498"
       ry="0.32420942" />
    <path
       style="fill:#000000;stroke:none;stroke-width:0.51265186"
       d="m -23.416882,28.854798 c -1.471588,0 -8.913455,1.438845 -11.756121,2.272811 -9.934889,2.914521 -21.520046,11.758554 -25.901474,19.772898 -2.421548,4.430244 -3.759524,12.395212 -2.509423,14.949388 0.313529,0.641224 0.904156,0.709102 3.90813,0.439192 12.223378,-1.099219 22.869653,-6.515102 30.436178,-15.480378 3.610215,-4.277601 5.694905,-8.826949 6.496743,-14.185163 0.643058,-4.297939 0.341092,-7.768721 -0.674033,-7.768721 z"
       id="path5103-2-1"
       inkscape:connector-curvature="0"
       sodipodi:nodetypes="cccccsccc" />
    <rect
       style="opacity:1;fill:#000000;fill-opacity:1;stroke:none;stroke-width:0.81323391;stroke-linecap:round;stroke-linejoin:round;stroke-miterlimit:4;stroke-dasharray:none;stroke-opacity:0.61176471"
       id="rect5262"
       width="64.818306"
       height="16.700504"
       x="-88.176277"
       y="249.69771"
       ry="0.32420942" />
  </g>
</svg>
