<?xml version="1.0" encoding="UTF-8" standalone="no"?>
<!-- Created with Inkscape (http://www.inkscape.org/) -->

<svg
   xmlns:dc="http://purl.org/dc/elements/1.1/"
   xmlns:cc="http://creativecommons.org/ns#"
   xmlns:rdf="http://www.w3.org/1999/02/22-rdf-syntax-ns#"
   xmlns:svg="http://www.w3.org/2000/svg"
   xmlns="http://www.w3.org/2000/svg"
   xmlns:sodipodi="http://sodipodi.sourceforge.net/DTD/sodipodi-0.dtd"
   xmlns:inkscape="http://www.inkscape.org/namespaces/inkscape"
   width="55mm"
   height="25mm"
   viewBox="0 0 210 297"
   version="1.1"
   id="svg8"
   inkscape:version="0.92.1 r15371"
   sodipodi:docname="logo.svg">
  <defs
     id="defs2" />
  <sodipodi:namedview
     id="base"
     pagecolor="#ffffff"
     bordercolor="#666666"
     borderopacity="1.0"
     inkscape:pageopacity="0.0"
     inkscape:pageshadow="2"
     inkscape:zoom="2.5178621"
     inkscape:cx="123.9284"
     inkscape:cy="-9.476878"
     inkscape:document-units="mm"
     inkscape:current-layer="layer1"
     showgrid="false"
     showguides="true"
     inkscape:guide-bbox="true"
     inkscape:window-width="1920"
     inkscape:window-height="1017"
     inkscape:window-x="-8"
     inkscape:window-y="-8"
     inkscape:window-maximized="1">
    <sodipodi:guide
       position="171.70302,294.40495"
       orientation="0,1"
       id="guide4503"
       inkscape:locked="false" />
    <sodipodi:guide
       position="6.4195879,373.26577"
       orientation="1,0"
       id="guide4496"
       inkscape:locked="false" />
    <sodipodi:guide
       position="57.477871,396.41215"
       orientation="1,0"
       id="guide4498"
       inkscape:locked="false" />
  </sodipodi:namedview>
  <metadata
     id="metadata5">
    <rdf:RDF>
      <cc:Work
         rdf:about="">
        <dc:format>image/svg+xml</dc:format>
        <dc:type
           rdf:resource="http://purl.org/dc/dcmitype/StillImage" />
        <dc:title />
      </cc:Work>
    </rdf:RDF>
  </metadata>
  <g
     inkscape:label="Layer 1"
     inkscape:groupmode="layer"
     id="layer1">
    <g
       aria-label="drone"
       style="font-style:italic;font-variant:normal;font-weight:normal;font-stretch:normal;font-size:35.53500748px;line-height:1.25;font-family:sans-serif;-inkscape-font-specification:'sans-serif, Italic';font-variant-ligatures:normal;font-variant-caps:normal;font-variant-numeric:normal;font-feature-settings:normal;text-align:start;letter-spacing:0px;word-spacing:0px;writing-mode:lr-tb;text-anchor:start;fill:#d40000;fill-opacity:1;stroke:none;stroke-width:0.88837516"
       id="text4491"
       transform="matrix(8.9089825,0,0,8.9089825,-816.77498,-370.10712)">
      <path
         d="M 91.6231,44.444212 85.376712,71.44249 h -3.262003 l 0.468479,-2.030076 q -2.203587,1.509543 -3.556971,2.030076 -1.336033,0.537883 -2.914981,0.537883 -2.74147,0 -4.355121,-1.735108 -1.596299,-1.735108 -1.596299,-5.049163 0,-2.793524 0.867554,-5.274728 0.867554,-2.498555 2.359747,-4.372472 1.474841,-1.856565 3.487566,-2.932332 2.012725,-1.093118 4.268366,-1.093118 1.544246,0 2.845576,0.329671 1.301331,0.32967 2.429151,0.989011 l 1.943321,-8.397922 z m -5.829963,11.10469 q -1.162522,-0.607287 -2.290342,-0.884905 -1.110469,-0.294968 -2.377097,-0.294968 -1.804513,0 -3.227301,0.867554 -1.405437,0.867554 -2.4118,2.377098 -0.919607,1.370735 -1.422788,3.296704 -0.48583,1.92597 -0.48583,3.730482 0,2.116832 0.902256,3.244652 0.919607,1.110469 2.967034,1.110469 1.457491,0 2.967034,-0.728746 1.526895,-0.728745 2.810875,-1.596299 z"
         style="font-style:italic;font-variant:normal;font-weight:normal;font-stretch:normal;font-size:35.53500748px;font-family:sans-serif;-inkscape-font-specification:'sans-serif, Italic';font-variant-ligatures:normal;font-variant-caps:normal;font-variant-numeric:normal;font-feature-settings:normal;text-align:start;writing-mode:lr-tb;text-anchor:start;fill:#d40000;stroke-width:0.88837516"
         id="path4514"
         inkscape:connector-curvature="0" />
      <path
         d="m 100.06607,62.57757 h -0.09646 q -0.385851,-0.09646 -0.72347,-0.135048 -0.327973,-0.04823 -0.80064,-0.04823 -0.906749,0 -1.803852,0.414789 -0.887457,0.405143 -1.70739,0.983919 l -1.736327,7.64949 H 91.36514 l 2.459798,-10.774881 h 1.832791 l -0.366558,1.591634 q 1.282954,-0.897103 2.17041,-1.244369 0.897103,-0.347265 1.717036,-0.347265 0.472667,0 0.684885,0.02894 0.212218,0.01929 0.617358,0.08682 z"
         style="font-style:italic;font-variant:normal;font-weight:normal;font-stretch:normal;font-size:19.75555611px;font-family:sans-serif;-inkscape-font-specification:'sans-serif, Italic';font-variant-ligatures:normal;font-variant-caps:normal;font-variant-numeric:normal;font-feature-settings:normal;text-align:start;writing-mode:lr-tb;text-anchor:start;fill:#d40000"
         id="path4516"
         inkscape:connector-curvature="0" />
      <path
         d="m 110.40687,64.477884 q 0,1.446941 -0.44373,2.778125 -0.44372,1.331185 -1.25401,2.315105 -0.83923,1.022504 -1.9389,1.60128 -1.09967,0.56913 -2.56591,0.56913 -1.9196,0 -2.99999,-1.090028 -1.07073,-1.099675 -1.07073,-3.028928 0,-1.446941 0.43408,-2.758833 0.44373,-1.311892 1.27331,-2.334397 0.80064,-0.983919 1.95819,-1.572341 1.1672,-0.588423 2.54661,-0.588423 1.86173,0 2.96141,1.06109 1.09967,1.061089 1.09967,3.04822 z m -2.95176,4.070725 q 0.5209,-0.771701 0.791,-1.784559 0.27974,-1.012858 0.27974,-2.141472 0,-1.350477 -0.6463,-2.045008 -0.6463,-0.694532 -1.82314,-0.694532 -0.93569,0 -1.67845,0.453375 -0.74277,0.443728 -1.28296,1.225076 -0.5209,0.762055 -0.80064,1.784559 -0.27974,1.022505 -0.27974,2.122179 0,1.331185 0.6463,2.045009 0.6463,0.713824 1.83279,0.713824 0.92604,0 1.67845,-0.443728 0.75241,-0.443729 1.28295,-1.234723 z"
         style="font-style:italic;font-variant:normal;font-weight:normal;font-stretch:normal;font-size:19.75555611px;font-family:sans-serif;-inkscape-font-specification:'sans-serif, Italic';font-variant-ligatures:normal;font-variant-caps:normal;font-variant-numeric:normal;font-feature-settings:normal;text-align:start;writing-mode:lr-tb;text-anchor:start;fill:#d40000"
         id="path4518"
         inkscape:connector-curvature="0" />
      <path
         d="m 122.6094,63.127407 q 0,0.23151 -0.0482,0.627007 -0.0386,0.395497 -0.11576,0.694532 l -1.62057,6.993544 h -1.8135 l 1.418,-6.135027 q 0.11576,-0.511252 0.17364,-0.887456 0.0675,-0.385851 0.0675,-0.762055 0,-0.810287 -0.40514,-1.21543 -0.3955,-0.41479 -1.4373,-0.41479 -0.73311,0 -1.62057,0.405144 -0.87781,0.405143 -1.71704,0.964626 l -1.86172,8.044988 h -1.8135 l 2.48873,-10.774881 h 1.8135 l -0.27974,1.196137 q 1.03215,-0.72347 1.92925,-1.109321 0.90675,-0.385851 1.86173,-0.385851 1.40836,0 2.18971,0.713824 0.79099,0.704178 0.79099,2.045009 z"
         style="font-style:italic;font-variant:normal;font-weight:normal;font-stretch:normal;font-size:19.75555611px;font-family:sans-serif;-inkscape-font-specification:'sans-serif, Italic';font-variant-ligatures:normal;font-variant-caps:normal;font-variant-numeric:normal;font-feature-settings:normal;text-align:start;writing-mode:lr-tb;text-anchor:start;fill:#d40000"
         id="path4520"
         inkscape:connector-curvature="0" />
      <path
         d="m 133.03702,64.883028 q 0.0482,-0.279742 0.0675,-0.472667 0.0193,-0.192926 0.0193,-0.424436 0,-1.032151 -0.56913,-1.610927 -0.55948,-0.578776 -1.80385,-0.578776 -1.36977,0 -2.43086,0.848872 -1.06109,0.848871 -1.43729,2.237934 z m -3.627,6.810265 q -2.23793,0 -3.51124,-1.051444 -1.27331,-1.051443 -1.27331,-3.077159 0,-2.961404 1.87138,-5.073937 1.87137,-2.122179 4.63021,-2.122179 1.83279,0 2.80706,0.916396 0.97427,0.906749 0.97427,2.556261 0,0.289388 -0.0868,0.916395 -0.0772,0.627008 -0.26045,1.456587 h -7.93888 q -0.0579,0.279741 -0.0868,0.549837 -0.0193,0.270095 -0.0193,0.501606 0,1.360123 0.82958,2.141471 0.82958,0.771702 2.35369,0.771702 1.06109,0 2.18005,-0.41479 1.12862,-0.414789 1.89067,-0.935688 h 0.10611 l -0.39549,1.958192 q -0.48232,0.173633 -0.86817,0.318327 -0.38585,0.144694 -0.98392,0.289388 -0.59807,0.144694 -1.06109,0.221864 -0.46302,0.07717 -1.15755,0.07717 z"
         style="font-style:italic;font-variant:normal;font-weight:normal;font-stretch:normal;font-size:19.75555611px;font-family:sans-serif;-inkscape-font-specification:'sans-serif, Italic';font-variant-ligatures:normal;font-variant-caps:normal;font-variant-numeric:normal;font-feature-settings:normal;text-align:start;writing-mode:lr-tb;text-anchor:start;fill:#d40000"
         id="path4522"
         inkscape:connector-curvature="0" />
    </g>
    <text
       xml:space="preserve"
       style="font-style:normal;font-weight:normal;font-size:10.58333302px;line-height:1.25;font-family:sans-serif;letter-spacing:0px;word-spacing:0px;fill:#000000;fill-opacity:1;stroke:none;stroke-width:0.26458332"
       x="102.67937"
       y="53.048462"
       id="text4495"><tspan
         sodipodi:role="line"
         id="tspan4493"
         x="102.67937"
         y="62.703957"
         style="stroke-width:0.26458332" /></text>
    <g
       aria-label="ZONE"
       style="font-style:normal;font-weight:normal;font-size:8.82961941px;line-height:1.25;font-family:sans-serif;letter-spacing:0px;word-spacing:0px;fill:#000080;fill-opacity:1;stroke:none;stroke-width:0.22074048"
       id="text4501"
       transform="matrix(8.9089825,0,0,8.9089825,-816.77498,-370.10712)">
      <path
         d="m 99.655493,56.675369 h -9.351578 l 0.329961,-1.464705 9.279148,-9.158431 h -7.025756 l 0.313865,-1.360083 h 8.965287 l -0.32192,1.384227 -9.359623,9.238909 h 7.484482 z"
         style="font-style:italic;font-variant:normal;font-weight:normal;font-stretch:normal;font-size:16.48195648px;font-family:sans-serif;-inkscape-font-specification:'sans-serif, Italic';font-variant-ligatures:normal;font-variant-caps:normal;font-variant-numeric:normal;font-feature-settings:normal;text-align:start;writing-mode:lr-tb;text-anchor:start;fill:#000080;stroke-width:0.22074048"
         id="path4505"
         inkscape:connector-curvature="0" />
      <path
         d="m 114.16573,48.933357 q 0,1.561279 -0.47482,3.009888 -0.46678,1.448609 -1.36008,2.551162 -0.91746,1.134744 -2.20511,1.786619 -1.28765,0.643826 -2.90527,0.643826 -2.14072,0 -3.34789,-1.166935 -1.20718,-1.174984 -1.20718,-3.331802 0,-1.641758 0.48287,-3.066223 0.48287,-1.424466 1.39228,-2.543115 0.88526,-1.078409 2.18901,-1.722236 1.31179,-0.651874 2.87307,-0.651874 2.13268,0 3.3479,1.166936 1.21522,1.158887 1.21522,3.323754 z m -3.05013,4.764315 q 0.67602,-0.917453 1.02208,-2.044149 0.34605,-1.134744 0.34605,-2.494827 0,-1.641758 -0.82892,-2.518971 -0.82088,-0.885261 -2.30168,-0.885261 -1.15084,0 -2.07634,0.531156 -0.9255,0.523109 -1.59347,1.424466 -0.64383,0.885262 -0.98989,2.060245 -0.34605,1.166935 -0.34605,2.406301 0,1.657853 0.82088,2.551162 0.82892,0.885262 2.31777,0.885262 1.13475,0 2.06025,-0.523109 0.93354,-0.523109 1.56932,-1.392275 z"
         style="font-style:italic;font-variant:normal;font-weight:normal;font-stretch:normal;font-size:16.48195648px;font-family:sans-serif;-inkscape-font-specification:'sans-serif, Italic';font-variant-ligatures:normal;font-variant-caps:normal;font-variant-numeric:normal;font-feature-settings:normal;text-align:start;writing-mode:lr-tb;text-anchor:start;fill:#000080;stroke-width:0.22074048"
         id="path4507"
         inkscape:connector-curvature="0" />
      <path
         d="m 124.28185,56.675369 h -1.89929 l -3.27546,-10.71971 -2.47873,10.71971 h -1.50495 l 2.76846,-11.983219 h 2.39825 l 2.99379,9.786162 2.26144,-9.786162 h 1.50495 z"
         style="font-style:italic;font-variant:normal;font-weight:normal;font-stretch:normal;font-size:16.48195648px;font-family:sans-serif;-inkscape-font-specification:'sans-serif, Italic';font-variant-ligatures:normal;font-variant-caps:normal;font-variant-numeric:normal;font-feature-settings:normal;text-align:start;writing-mode:lr-tb;text-anchor:start;fill:#000080;stroke-width:0.22074048"
         id="path4509"
         inkscape:connector-curvature="0" />
      <path
         d="m 138.11607,44.69215 -0.31386,1.360083 h -6.30145 l -0.77259,3.380089 h 6.30145 l -0.31387,1.352035 h -6.30145 l -1.04622,4.530929 h 6.30145 l -0.31386,1.360083 h -7.89492 l 2.7604,-11.983219 z"
         style="font-style:italic;font-variant:normal;font-weight:normal;font-stretch:normal;font-size:16.48195648px;font-family:sans-serif;-inkscape-font-specification:'sans-serif, Italic';font-variant-ligatures:normal;font-variant-caps:normal;font-variant-numeric:normal;font-feature-settings:normal;text-align:start;writing-mode:lr-tb;text-anchor:start;fill:#000080;stroke-width:0.22074048"
         id="path4511"
         inkscape:connector-curvature="0" />
    </g>
  </g>
</svg>
