<?xml version="1.0" encoding="UTF-8" standalone="no"?>
<!-- Created with Inkscape (http://www.inkscape.org/) -->

<svg
   xmlns:osb="http://www.openswatchbook.org/uri/2009/osb"
   xmlns:dc="http://purl.org/dc/elements/1.1/"
   xmlns:cc="http://creativecommons.org/ns#"
   xmlns:rdf="http://www.w3.org/1999/02/22-rdf-syntax-ns#"
   xmlns:svg="http://www.w3.org/2000/svg"
   xmlns="http://www.w3.org/2000/svg"
   xmlns:xlink="http://www.w3.org/1999/xlink"
   xmlns:sodipodi="http://sodipodi.sourceforge.net/DTD/sodipodi-0.dtd"
   xmlns:inkscape="http://www.inkscape.org/namespaces/inkscape"
   width="16px"
   height="16px"
   viewBox="0 0 16 16"
   version="1.1"
   id="SVGRoot"
   inkscape:version="0.92.1 r15371"
   sodipodi:docname="vk1.svg">
  <sodipodi:namedview
     id="base"
     pagecolor="#ffffff"
     bordercolor="#666666"
     borderopacity="1.0"
     inkscape:pageopacity="0.0"
     inkscape:pageshadow="2"
     inkscape:zoom="16"
     inkscape:cx="8"
     inkscape:cy="3"
     inkscape:document-units="px"
     inkscape:current-layer="layer1"
     showgrid="false"
     inkscape:window-width="1920"
     inkscape:window-height="1017"
     inkscape:window-x="-8"
     inkscape:window-y="-8"
     inkscape:window-maximized="1"
     inkscape:grid-bbox="true" />
  <defs
     id="defs4851">
    <linearGradient
       gradientTransform="translate(-136.2182,-27.437464)"
       inkscape:collect="always"
       xlink:href="#linearGradient4505"
       id="linearGradient4507"
       x1="137.80035"
       y1="43.215782"
       x2="169.69458"
       y2="43.215782"
       gradientUnits="userSpaceOnUse" />
    <linearGradient
       id="linearGradient4505"
       osb:paint="solid">
      <stop
         style="stop-color:#ffffff;stop-opacity:1;"
         offset="0"
         id="stop4503" />
    </linearGradient>
    <filter
       inkscape:collect="always"
       style="color-interpolation-filters:sRGB"
       id="filter4817"
       x="-0.11135361"
       width="1.2227072"
       y="-0.20372871"
       height="1.4074574">
      <feGaussianBlur
         inkscape:collect="always"
         stdDeviation="1.4561877"
         id="feGaussianBlur4819" />
    </filter>
    <filter
       inkscape:collect="always"
       style="color-interpolation-filters:sRGB"
       id="filter4829"
       x="-0.011945946"
       width="1.0238919"
       y="-0.012054546"
       height="1.0241091">
      <feGaussianBlur
         inkscape:collect="always"
         stdDeviation="0.22819971"
         id="feGaussianBlur4831" />
    </filter>
  </defs>
  <metadata
     id="metadata4854">
    <rdf:RDF>
      <cc:Work
         rdf:about="">
        <dc:format>image/svg+xml</dc:format>
        <dc:type
           rdf:resource="http://purl.org/dc/dcmitype/StillImage" />
        <dc:title></dc:title>
      </cc:Work>
    </rdf:RDF>
  </metadata>
  <g
     id="layer1"
     inkscape:groupmode="layer"
     inkscape:label="Layer 1">
    <g
       id="g4894"
       transform="matrix(0.33957748,0,0,0.34182436,1.5901103,2.7444502)">
      <rect
         ry="12.390935"
         style="fill:#3b6592;fill-opacity:1;stroke:#0f0b7b;stroke-opacity:1;filter:url(#filter4829)"
         y="-7.3417139"
         x="-4.0482302"
         height="45.433426"
         width="45.846458"
         id="rect3690" />
      <path
         sodipodi:nodetypes="ccccccccccccccccccccccccc"
         inkscape:connector-curvature="0"
         id="path3696-2"
         d="m 1.8896124,7.258883 6.1370203,-0.05845 3.9744403,7.86123 c 0.42862,0.357659 0.85724,0.854572 1.28586,0.467582 l -0.1169,-6.896841 c 0.01,-0.412338 -0.0106,-0.815302 -0.43836,-1.373523 l 6.40004,-2e-6 c 0.26902,0.05956 0.88301,0.145274 0.70137,0.730598 l -0.17534,7.364423 h 1.69498 l 4.1498,-5.844781 c 0.27661,-0.804903 0.1489,-1.552047 -0.1169,-2.279464 l 7.13063,-0.02922 c 0.57977,0.297895 0.81682,1.120491 0.52603,1.72421 l -5.49409,6.779946 -0.11689,1.87033 5.58176,4.938839 c 0.40466,0.417825 0.35724,1.726802 -0.26297,1.841106 h -6.7215 l -3.38997,-4.091346 c -0.54261,-0.547546 -1.08002,-0.625589 -1.4612,-0.642926 -0.65758,-0.0588 -1.4073,0.372758 -1.40275,1.05206 l 10e-6,3.682212 -4.67583,-0.05845 C 7.3702027,20.64537 4.4896424,13.062049 1.8896124,7.258883 Z"
         style="fill:#0f0b7b;fill-opacity:1;stroke:#0f0b7b;stroke-width:0.40000001;stroke-linecap:butt;stroke-linejoin:miter;stroke-miterlimit:4;stroke-dasharray:none;stroke-opacity:1;filter:url(#filter4817)" />
      <path
         sodipodi:nodetypes="ccccccccccccccccccccccccc"
         inkscape:connector-curvature="0"
         id="path3696"
         d="m 1.8896124,7.258883 6.1370203,-0.05845 3.9744403,7.86123 c 0.42862,0.357659 0.85724,0.854572 1.28586,0.467582 l -0.1169,-6.896841 c 0.01,-0.412338 -0.0106,-0.815302 -0.43836,-1.373523 l 6.40004,-2e-6 c 0.26902,0.05956 0.88301,0.145274 0.70137,0.730598 l -0.17534,7.364423 h 1.69498 l 4.1498,-5.844781 c 0.27661,-0.804903 0.1489,-1.552047 -0.1169,-2.279464 l 7.13063,-0.02922 c 0.57977,0.297895 0.81682,1.120491 0.52603,1.72421 l -5.49409,6.779946 -0.11689,1.87033 5.58176,4.938839 c 0.40466,0.417825 0.35724,1.726802 -0.26297,1.841106 h -6.7215 l -3.38997,-4.091346 c -0.54261,-0.547546 -1.08002,-0.625589 -1.4612,-0.642926 -0.65758,-0.0588 -1.4073,0.372758 -1.40275,1.05206 l 10e-6,3.682212 -4.67583,-0.05845 C 7.3702027,20.64537 4.4896424,13.062049 1.8896124,7.258883 Z"
         style="fill:#ffffff;stroke:url(#linearGradient4507);stroke-width:0.40000001;stroke-linecap:round;stroke-linejoin:round;stroke-miterlimit:4;stroke-dasharray:none;stroke-opacity:1" />
    </g>
  </g>
</svg>
