<?xml version="1.0" encoding="UTF-8" standalone="no"?>
<!-- Created with Inkscape (http://www.inkscape.org/) -->

<?xml-stylesheet type="text/css" href="svg.css"?><svg
   xmlns:dc="http://purl.org/dc/elements/1.1/"
   xmlns:cc="http://creativecommons.org/ns#"
   xmlns:rdf="http://www.w3.org/1999/02/22-rdf-syntax-ns#"
   xmlns:svg="http://www.w3.org/2000/svg"
   xmlns="http://www.w3.org/2000/svg"
   xmlns:xlink="http://www.w3.org/1999/xlink"
   xmlns:sodipodi="http://sodipodi.sourceforge.net/DTD/sodipodi-0.dtd"
   xmlns:inkscape="http://www.inkscape.org/namespaces/inkscape"
   width="500px"
   height="500px"
   viewBox="0 0 500 500"
   version="1.1"
   id="SVGRoot"
   inkscape:version="0.92.1 r15371"
   sodipodi:docname="menu3.svg">
  <sodipodi:namedview
     id="base"
     pagecolor="#ffffff"
     bordercolor="#666666"
     borderopacity="1.0"
     inkscape:pageopacity="0.0"
     inkscape:pageshadow="2"
     inkscape:zoom="1.4138565"
     inkscape:cx="3.5291457"
     inkscape:cy="244.23949"
     inkscape:document-units="px"
     inkscape:current-layer="layer1"
     showgrid="false"
     inkscape:window-width="1920"
     inkscape:window-height="1017"
     inkscape:window-x="-8"
     inkscape:window-y="-8"
     inkscape:window-maximized="1"
     inkscape:snap-object-midpoints="false"
     inkscape:snap-to-guides="false"
     inkscape:snap-grids="false" />
  <defs
     id="defs5947">
    <filter
       inkscape:collect="always"
       style="color-interpolation-filters:sRGB"
       id="filter5306-4"
       x="-0.011177009"
       width="1.022354"
       y="-0.068039753"
       height="1.1360795">
      <feGaussianBlur
         inkscape:collect="always"
         stdDeviation="0.23586847"
         id="feGaussianBlur5308-1" />
    </filter>
    <filter
       inkscape:collect="always"
       style="color-interpolation-filters:sRGB"
       id="filter5306-72"
       x="-0.011177009"
       width="1.022354"
       y="-0.068039753"
       height="1.1360795">
      <feGaussianBlur
         inkscape:collect="always"
         stdDeviation="0.23586847"
         id="feGaussianBlur5308-9" />
    </filter>
    <filter
       inkscape:collect="always"
       style="color-interpolation-filters:sRGB"
       id="filter5306-8"
       x="-0.011177009"
       width="1.022354"
       y="-0.068039753"
       height="1.1360795">
      <feGaussianBlur
         inkscape:collect="always"
         stdDeviation="0.23586847"
         id="feGaussianBlur5308-5" />
    </filter>
    <filter
       inkscape:collect="always"
       style="color-interpolation-filters:sRGB"
       id="filter5306-7"
       x="-0.011177009"
       width="1.022354"
       y="-0.068039753"
       height="1.1360795">
      <feGaussianBlur
         inkscape:collect="always"
         stdDeviation="0.23586847"
         id="feGaussianBlur5308-2" />
    </filter>
    <filter
       inkscape:collect="always"
       style="color-interpolation-filters:sRGB"
       id="filter5306"
       x="-0.011177009"
       width="1.022354"
       y="-0.068039753"
       height="1.1360795">
      <feGaussianBlur
         inkscape:collect="always"
         stdDeviation="0.23586847"
         id="feGaussianBlur5308" />
    </filter>
    <linearGradient
       inkscape:collect="always"
       id="linearGradient4608">
      <stop
         style="stop-color:#00ff00;stop-opacity:1;"
         offset="0"
         id="stop4604" />
      <stop
         style="stop-color:#00ff00;stop-opacity:0;"
         offset="1"
         id="stop4606" />
    </linearGradient>
    <linearGradient
       inkscape:collect="always"
       xlink:href="#linearGradient4598"
       id="linearGradient5041"
       gradientUnits="userSpaceOnUse"
       gradientTransform="matrix(0.97734205,0,0,0.97734205,93.836562,29.44784)"
       x1="31.023438"
       y1="226.80566"
       x2="349.1261"
       y2="233.69955" />
    <linearGradient
       inkscape:collect="always"
       id="linearGradient4598">
      <stop
         style="stop-color:#008000;stop-opacity:1;"
         offset="0"
         id="stop4594" />
      <stop
         style="stop-color:#00ff00;stop-opacity:1"
         offset="1"
         id="stop4596" />
    </linearGradient>
    <radialGradient
       inkscape:collect="always"
       xlink:href="#linearGradient4541"
       id="radialGradient4543-8-9"
       cx="114.26121"
       cy="98.052597"
       fx="114.26121"
       fy="98.052597"
       r="31.399036"
       gradientUnits="userSpaceOnUse"
       gradientTransform="matrix(-3.6831,3.6916576,-3.7048577,-3.6962697,1032.4288,191.7302)" />
    <linearGradient
       inkscape:collect="always"
       id="linearGradient4541">
      <stop
         style="stop-color:#ffcc00;stop-opacity:1;"
         offset="0"
         id="stop4537" />
      <stop
         style="stop-color:#ffcc00;stop-opacity:0;"
         offset="1"
         id="stop4539" />
    </linearGradient>
    <circle
       style="fill:none;fill-opacity:1;stroke:#000000;stroke-width:1;stroke-linecap:round;stroke-linejoin:round;stroke-miterlimit:4;stroke-dasharray:none;stroke-opacity:1"
       id="path4599-9"
       cx="248.32251"
       cy="251.11455"
       r="189.86078" />
    <circle
       style="fill:none;fill-opacity:1;stroke:#000000;stroke-width:1;stroke-linecap:round;stroke-linejoin:round;stroke-miterlimit:4;stroke-dasharray:none;stroke-opacity:1"
       id="path4599-9-0"
       cx="248.32251"
       cy="251.11455"
       r="189.86078" />
    <circle
       style="fill:none;fill-opacity:1;stroke:#000000;stroke-width:1;stroke-linecap:round;stroke-linejoin:round;stroke-miterlimit:4;stroke-dasharray:none;stroke-opacity:1"
       id="path4599-90"
       cx="248.32251"
       cy="251.11455"
       r="189.86078" />
    <circle
       style="fill:none;fill-opacity:1;stroke:#000000;stroke-width:1;stroke-linecap:round;stroke-linejoin:round;stroke-miterlimit:4;stroke-dasharray:none;stroke-opacity:1"
       id="path4599-8"
       cx="248.32251"
       cy="251.11455"
       r="189.86078" />
    <circle
       style="fill:none;fill-opacity:1;stroke:#000000;stroke-width:1;stroke-linecap:round;stroke-linejoin:round;stroke-miterlimit:4;stroke-dasharray:none;stroke-opacity:1"
       id="path4599-6"
       cx="248.32251"
       cy="251.11455"
       r="189.86078" />
    <circle
       style="fill:none;fill-opacity:1;stroke:#000000;stroke-width:1;stroke-linecap:round;stroke-linejoin:round;stroke-miterlimit:4;stroke-dasharray:none;stroke-opacity:1"
       id="path4599-90-6"
       cx="248.32251"
       cy="251.11455"
       r="189.86078" />
    <circle
       style="fill:none;fill-opacity:1;stroke:#000000;stroke-width:1;stroke-linecap:round;stroke-linejoin:round;stroke-miterlimit:4;stroke-dasharray:none;stroke-opacity:1"
       id="path4599-4"
       cx="248.32251"
       cy="251.11455"
       r="189.86078" />
    <circle
       style="fill:none;fill-opacity:1;stroke:#000000;stroke-width:1;stroke-linecap:round;stroke-linejoin:round;stroke-miterlimit:4;stroke-dasharray:none;stroke-opacity:1"
       id="path4599-6-1"
       cx="248.32251"
       cy="251.11455"
       r="189.86078" />
    <circle
       style="fill:none;fill-opacity:1;stroke:#000000;stroke-width:1;stroke-linecap:round;stroke-linejoin:round;stroke-miterlimit:4;stroke-dasharray:none;stroke-opacity:1"
       id="path4599-90-6-6"
       cx="248.32251"
       cy="251.11455"
       r="189.86078" />
    <linearGradient
       inkscape:collect="always"
       xlink:href="#linearGradient4608"
       id="linearGradient5051-2"
       gradientUnits="userSpaceOnUse"
       gradientTransform="matrix(3.6938913,0,0,3.6938913,-172.63256,-112.09845)"
       x1="187.35191"
       y1="100.78861"
       x2="1.5634373"
       y2="94.795433" />
    <linearGradient
       inkscape:collect="always"
       xlink:href="#linearGradient4608"
       id="linearGradient5043-4"
       gradientUnits="userSpaceOnUse"
       gradientTransform="matrix(3.6938913,0,0,3.6938913,-172.53168,-112.19194)"
       x1="187.35191"
       y1="100.78861"
       x2="1.5634373"
       y2="94.795433" />
    <linearGradient
       inkscape:collect="always"
       xlink:href="#linearGradient4608"
       id="linearGradient5045-7"
       gradientUnits="userSpaceOnUse"
       gradientTransform="matrix(3.6938913,0,0,3.6938913,-172.47875,-112.17223)"
       x1="187.35191"
       y1="100.78861"
       x2="1.5634373"
       y2="94.795433" />
    <linearGradient
       inkscape:collect="always"
       xlink:href="#linearGradient4608"
       id="linearGradient5047-4"
       gradientUnits="userSpaceOnUse"
       gradientTransform="matrix(3.6938913,0,0,3.6938913,-172.50745,-111.9204)"
       x1="187.35191"
       y1="100.78861"
       x2="1.5634373"
       y2="94.795433" />
    <linearGradient
       inkscape:collect="always"
       xlink:href="#linearGradient4608"
       id="linearGradient5049-9"
       gradientUnits="userSpaceOnUse"
       gradientTransform="matrix(3.6938913,0,0,3.6938913,-172.00275,-111.9331)"
       x1="187.35191"
       y1="100.78861"
       x2="1.5634373"
       y2="94.795433" />
  </defs>
  <metadata
     id="metadata5950">
    <rdf:RDF>
      <cc:Work
         rdf:about="">
        <dc:format>image/svg+xml</dc:format>
        <dc:type
           rdf:resource="http://purl.org/dc/dcmitype/StillImage" />
        <dc:title />
      </cc:Work>
    </rdf:RDF>
  </metadata>
  <g
     id="layer1"
     inkscape:groupmode="layer"
     inkscape:label="Layer 1">
    <circle
       style="opacity:0.706;fill:url(#radialGradient4543-8-9);fill-opacity:1;stroke:none;stroke-width:0.97734201;stroke-opacity:1"
       id="center1"
       cx="248.32251"
       cy="251.11455"
       r="115.98463"
       inkscape:label="#path4485-8-6" />
    <path
       style="opacity:0.706;fill:url(#linearGradient5041);fill-opacity:1;stroke:none;stroke-width:1.04628313;stroke-opacity:1"
       d="M 248.32153,126.94916 A 124.16612,124.16612 0 0 0 124.1571,251.1136 124.16612,124.16612 0 0 0 248.32153,375.27994 124.16612,124.16612 0 0 0 372.48788,251.1136 124.16612,124.16612 0 0 0 248.32153,126.94916 Z m 0,8.18142 A 115.98462,115.98462 0 0 1 364.30642,251.1136 115.98462,115.98462 0 0 1 248.32153,367.09853 115.98462,115.98462 0 0 1 132.33851,251.1136 115.98462,115.98462 0 0 1 248.32153,135.13058 Z"
       id="path4485-0-4-0"
       inkscape:connector-curvature="0" />
    <g
       id="project">
      <g
         id="one-1">
         <a
           xlink:href="../project.html"
           target="_parent">
         <path
            onclick=""
            inkscape:label="#path4602-2-0-6"
            sodipodi:nodetypes="ccccccc"
            id="one-2"
            d="M 249.53621,3.59684 C 194.531,3.59694 143.73922,21.62678 102.7364,52.0898 l 72.04084,98.98452 c 20.60912,-15.21684 46.08873,-24.21748 73.67282,-24.21786 26.72349,0 51.47508,8.4423 71.73353,22.80529 L 392.81989,49.52428 C 352.44532,20.61677 302.97991,3.59696 249.53621,3.59684 Z"
            style="opacity:0.84459462;fill:url(#linearGradient5043-4);fill-opacity:1;stroke:none;stroke-width:0.97734201;stroke-opacity:1"
            inkscape:connector-curvature="0" />
          </a>
        <g
           id="one">
           <text
              transform="matrix(3.6938913,0,0,3.6938913,-174.4812,-23.342675)"
              xml:space="preserve"

              x="92.729507"
              y="76.963821"
              id="text5252"><tspan
                sodipodi:role="line"
                id="tspan5250"
                x="92.729507"
                y="76.963821"
                >О проекте</tspan></text>
        </g>
        <path
           style="opacity:0.84459462;fill:#ff6600;fill-opacity:1;stroke:none;stroke-width:0.97734201;stroke-opacity:1"
           d="m 250.09669,47.027286 c -3.14611,-0.0607 -5.62025,0.7545 -7.42187,2.44532 -1.79077,1.69102 -2.71503,4.05134 -2.77344,7.07812 -0.058,3.00509 0.76928,5.39066 2.48242,7.16016 1.7242,1.75885 4.17008,2.66934 7.33789,2.73047 3.16782,0.0611 5.64196,-0.75408 7.42188,-2.44531 1.79098,-1.70188 2.71544,-4.05547 2.77344,-7.06055 0.058,-3.00508 -0.76929,-5.39262 -2.48242,-7.16211 -1.7023,-1.76929 -4.14839,-2.68454 -7.3379,-2.7461 z m -21.56054,0.77344 c -0.27016,0.002 -0.54676,0.0176 -0.83008,0.0469 -1.21964,0.12595 -2.27661,0.45855 -3.16992,0.99804 -0.88253,0.53839 -1.73436,1.20881 -2.55664,2.01368 l -0.19727,-1.89454 -5.82812,0.60352 2.5664,24.85156 5.82813,-0.60351 -0.78125,-7.57617 c 0.79677,0.32132 1.56705,0.55217 2.3125,0.69336 0.74656,0.15197 1.63767,0.17536 2.67383,0.0684 1.1225,-0.11592 2.15419,-0.44144 3.09179,-0.97461 0.93761,-0.53316 1.75123,-1.25951 2.44141,-2.18164 0.66225,-0.87561 1.15617,-1.95321 1.48242,-3.23046 0.33705,-1.27837 0.42837,-2.66771 0.27344,-4.16797 -0.29983,-2.9034 -1.1671,-5.12059 -2.60156,-6.65235 -1.24572,-1.34126 -2.81401,-2.00569 -4.70508,-1.99414 z m 44.69726,1.12305 c -2.18571,0.0317 -4.05852,0.60965 -5.61914,1.73242 -2.06858,1.48778 -3.31026,3.72499 -3.72461,6.71289 -0.41881,3.02015 0.22553,5.48086 1.9336,7.38281 1.70806,1.90196 4.37894,3.10561 8.01172,3.60938 1.40796,0.19525 2.70878,0.25517 3.90234,0.17969 1.19356,-0.0755 2.48292,-0.28605 3.86719,-0.63086 l 0.64453,-4.65821 -0.64453,-0.0898 c -0.73642,0.41274 -1.7088,0.75983 -2.91992,1.04102 -1.21113,0.28118 -2.431,0.33592 -3.65626,0.16601 -1.93461,-0.26828 -3.34892,-0.84732 -4.24414,-1.73828 -0.88447,-0.88947 -1.27091,-2.04983 -1.16015,-3.48047 l 13.2832,1.8418 0.2832,-2.03125 c 0.38752,-2.79444 -0.0584,-5.03573 -1.33593,-6.72461 -1.27603,-1.69963 -3.38517,-2.75373 -6.33008,-3.16211 -0.79803,-0.11067 -1.56244,-0.16096 -2.29102,-0.15039 z m -65.05468,1.92187 -17.97657,4.18164 4.13867,17.80274 5.70704,-1.32813 -3.24024,-13.93359 6.56446,-1.52734 3.24023,13.93554 5.70703,-1.32617 z m 41.83984,0.26758 c 0.56413,0.0109 1.08763,0.11279 1.57226,0.30664 0.48464,0.19385 0.89581,0.5153 1.23438,0.9668 0.33878,0.44065 0.6,1.02718 0.78125,1.75781 0.18125,0.73063 0.26096,1.63302 0.24023,2.70703 -0.0224,1.16081 -0.13765,2.07052 -0.3457,2.72852 -0.19699,0.64736 -0.4902,1.20099 -0.8789,1.66016 -0.34448,0.4166 -0.76216,0.71171 -1.25391,0.88671 -0.48069,0.16437 -0.98599,0.24073 -1.51758,0.23047 -0.61837,-0.0119 -1.16987,-0.11952 -1.6543,-0.32422 -0.47357,-0.20448 -0.87975,-0.52137 -1.21875,-0.95117 -0.34942,-0.4517 -0.61085,-1.04301 -0.78125,-1.77343 -0.17019,-0.74127 -0.24387,-1.6113 -0.22461,-2.60938 0.0216,-1.11741 0.14097,-2.04361 0.36133,-2.77734 0.23121,-0.73353 0.53032,-1.30647 0.89649,-1.72266 0.41019,-0.4479 0.8346,-0.74516 1.27148,-0.88867 0.44773,-0.1433 0.95345,-0.20815 1.51758,-0.19727 z m 40.44336,1.05274 -4.60156,17.68945 5.66992,1.47461 1.82422,-7.00977 1.81054,0.47266 2.91797,8.24219 6.55274,1.70508 -4.04297,-10.77344 c 0.34866,-0.13354 0.65637,-0.32154 0.92187,-0.56641 0.26824,-0.25536 0.58435,-0.60999 0.94922,-1.06445 0.4342,-0.54855 0.87668,-0.93291 1.32617,-1.15234 0.46,-0.2167 1.0047,-0.24398 1.63477,-0.0801 l 1.54297,0.40234 1.23047,-4.72656 c -0.15752,-0.041 -0.46134,-0.12399 -0.91016,-0.25196 -0.43832,-0.12522 -0.85681,-0.23994 -1.25586,-0.34374 -1.37566,-0.35785 -2.51757,-0.38591 -3.42578,-0.084 -0.89498,0.29415 -1.76606,0.88088 -2.61133,1.75977 -0.18611,0.19824 -0.44482,0.48423 -0.77734,0.85742 -0.33252,0.37318 -0.61326,0.67419 -0.8418,0.90625 -0.76544,0.78753 -1.37562,1.2407 -1.83203,1.35742 -0.45368,0.10622 -1.20691,0.0283 -2.25977,-0.23437 l 1.84766,-7.10547 z m -63.98633,0.33398 c 0.86341,0.0622 1.55318,0.36966 2.06836,0.92188 0.68691,0.73628 1.11994,1.98966 1.30273,3.75976 0.18726,1.81328 -0.049,3.21261 -0.71093,4.19727 -0.66302,0.97386 -1.76711,1.53983 -3.31055,1.69922 -0.43173,0.0446 -0.87138,0.0678 -1.31836,0.0703 -0.44698,0.003 -0.87123,-0.0511 -1.27539,-0.16211 l -0.94531,-9.14649 c 0.49654,-0.36762 1.02763,-0.66267 1.59375,-0.88476 0.565,-0.23288 1.12337,-0.3787 1.67383,-0.43555 0.32649,-0.0337 0.63407,-0.0403 0.92187,-0.0195 z m 47.26953,0.0801 c 0.25962,-9.7e-4 0.52915,0.0179 0.8086,0.0566 1.20375,0.16693 2.04657,0.59549 2.53125,1.28711 0.48468,0.69162 0.65961,1.64821 0.52343,2.86719 l -7.52929,-1.04492 c 0.26334,-1.26707 0.79511,-2.14058 1.5957,-2.6211 0.60044,-0.36039 1.29145,-0.54201 2.07031,-0.54492 z m 37.68164,5.28711 -1.39844,3.7168 5.45313,2.05078 -5.03711,13.39062 5.48438,2.06445 5.0371,-13.39062 5.45313,2.05078 1.39844,-3.7168 z m -147.52929,1.02344 c -1.98643,-0.0701 -4.08473,0.39567 -6.29493,1.40039 -3.54619,1.61203 -5.85697,3.91009 -6.93359,6.89062 -1.08111,2.97065 -0.81711,6.22725 0.79492,9.77344 1.59857,3.51656 3.87786,5.85533 6.83594,7.01367 2.95359,1.14847 6.20381,0.91672 9.75,-0.69531 3.55607,-1.61653 5.87259,-3.91596 6.94922,-6.89649 1.07213,-2.9904 0.80755,-6.2432 -0.79102,-9.75976 -1.61203,-3.54619 -3.89649,-5.88739 -6.85547,-7.02149 -1.1113,-0.42899 -2.26322,-0.66302 -3.45507,-0.70507 z m -2.16016,5.02929 c 0.78306,-0.0341 1.56079,0.13047 2.33398,0.49414 0.75434,0.34841 1.4963,0.91771 2.22461,1.70704 0.72831,0.78932 1.39244,1.84432 1.99414,3.16796 0.5613,1.23475 0.91747,2.37222 1.06836,3.41211 0.14641,1.03002 0.0955,2.00653 -0.15234,2.92969 -0.22448,0.8172 -0.60316,1.52011 -1.13477,2.10742 -0.53609,0.57744 -1.16942,1.03295 -1.90039,1.36524 -0.73097,0.33228 -1.48979,0.50893 -2.27734,0.5332 -0.78755,0.0243 -1.56148,-0.14172 -2.32031,-0.5 -0.75883,-0.35828 -1.49884,-0.92758 -2.22266,-1.70703 -0.71843,-0.79382 -1.37739,-1.84834 -1.97461,-3.16211 -0.58374,-1.28414 -0.94233,-2.4787 -1.07617,-3.58594 -0.12845,-1.12161 -0.0706,-2.07192 0.17187,-2.84961 0.26399,-0.83515 0.65253,-1.52415 1.16797,-2.06836 0.52532,-0.5487 1.15,-0.98665 1.8711,-1.31445 0.71121,-0.3233 1.45337,-0.49964 2.22656,-0.5293 z m 173.71875,4.20508 c -0.97966,-0.0274 -1.92842,0.0997 -2.84766,0.38086 -2.43674,0.74484 -4.33185,2.46544 -5.68359,5.16211 -1.36633,2.72577 -1.54603,5.26362 -0.53906,7.61328 1.00696,2.34967 3.14905,4.3448 6.42773,5.988277 1.27073,0.63697 2.48407,1.1121 3.63867,1.42383 1.1546,0.31173 2.44355,0.52663 3.86524,0.64453 l 2.10742,-4.205077 -0.58203,-0.29101 c -0.82995,0.15444 -1.86428,0.16944 -3.10156,0.0469 -1.23729,-0.12256 -2.40785,-0.46131 -3.51368,-1.01562 -1.74604,-0.87523 -2.90113,-1.87855 -3.46289,-3.00977 -0.55205,-1.12635 -0.5447,-2.34863 0.0195,-3.66797 l 11.98829,6.00977 0.91992,-1.83398 c 1.26421,-2.52207 1.56216,-4.78724 0.89453,-6.79688 -0.66277,-2.01934 -2.3226,-3.69505 -4.98047,-5.02734 -1.80061,-0.90258 -3.51762,-1.37625 -5.15039,-1.42188 z m 0.89844,3.93945 c 0.70242,-0.0166 1.43088,0.16566 2.1875,0.54493 1.08643,0.54458 1.74937,1.22258 1.98632,2.0332 0.23696,0.81062 0.0946,1.77014 -0.42578,2.88086 l -6.79492,-3.40625 c 0.65623,-1.11543 1.44103,-1.77072 2.35352,-1.96875 0.22812,-0.0495 0.45921,-0.0785 0.69336,-0.084 z"
           id="one-3-6"
           inkscape:connector-curvature="0" />
      </g>
    </g>
    <g
       id="two">
      <g
         inkscape:label="#g4551"
         id="portfolio">
         <a
           xlink:href="../portfolio.html"
           target="_parent">
         <path
            inkscape:label="#path4602-2-9-2"
            sodipodi:nodetypes="ccccccc"
            id="two-8"
            d="m 394.04109,50.39535 -72.63635,100.13368 c 31.06294,22.56859 51.26413,59.17839 51.26461,100.51159 10e-5,13.47007 -2.15287,26.43495 -6.11982,38.58017 l 116.94131,38.07433 c 8.10511,-24.4203 12.50513,-50.53117 12.50501,-77.6719 C 495.99567,167.8991 455.81056,95.17014 394.04109,50.39535 Z"
            style="opacity:0.84459462;fill:url(#linearGradient5045-7);fill-opacity:1;stroke:none;stroke-width:0.97734201;stroke-opacity:1"
            inkscape:connector-curvature="0" />
          </a>
        <g
           id="two-1">
           <text
              transform="matrix(3.6938913,0,0,3.6938913,-174.4812,-23.342675)"
              xml:space="preserve"

              x="89.038521"
              y="77.074432"
              id="text5252-9"><tspan
                sodipodi:role="line"
                id="tspan5250-1"
                x="89.038521"
                y="77.074432"
                >Портфолио</tspan></text>
        </g>
        <path
           style="opacity:0.84459462;fill:#ff6600;fill-opacity:1;stroke:none;stroke-width:0.97734201;stroke-opacity:1"
           d="m 382.51676,87.238437 -17.46484,16.802733 4.33398,4.50391 14.08594,-13.552743 6.39844,6.650393 -14.08594,13.55274 4.33203,4.5039 17.46485,-16.80273 z m 14.26563,28.408203 c -2.12802,-0.10933 -4.2616,0.62006 -6.39844,2.18555 -2.42459,1.7763 -3.81945,3.88114 -4.1875,6.3164 -0.35289,2.4376 0.40681,4.93435 2.2793,7.49024 1.87249,2.55588 4.02114,4.02833 6.44531,4.41797 2.43933,0.39197 4.87033,-0.29988 7.29492,-2.07618 2.42459,-1.7763 3.8214,-3.88114 4.18946,-6.3164 0.37446,-2.42651 -0.38227,-4.92661 -2.26758,-7.5 -1.85967,-2.53838 -4.00637,-4.01083 -6.44336,-4.41797 -0.30382,-0.0498 -0.60811,-0.084 -0.91211,-0.0996 z m 1.07617,5.37109 c 0.1489,-0.009 0.29144,-0.008 0.42969,0.002 0.60489,0.0545 1.09751,0.21231 1.47656,0.47265 0.38546,0.2691 0.74467,0.63078 1.07813,1.08594 0.33345,0.45516 0.57117,0.9346 0.71093,1.4375 0.13977,0.5029 0.13219,1.02534 -0.0215,1.56836 -0.14492,0.5366 -0.4528,1.09835 -0.92383,1.68555 -0.47103,0.5872 -1.13931,1.19913 -2.00586,1.83398 -0.93657,0.68615 -1.72954,1.14529 -2.37891,1.37891 -0.63419,0.23595 -1.25269,0.3392 -1.85351,0.30859 -0.54016,-0.0213 -1.02943,-0.17411 -1.4668,-0.45898 -0.4222,-0.28254 -0.78929,-0.63946 -1.10351,-1.06836 -0.36552,-0.49893 -0.61508,-1.00241 -0.7461,-1.51172 -0.1246,-0.50056 -0.11858,-1.01669 0.0176,-1.54688 0.14726,-0.55177 0.46006,-1.11686 0.9375,-1.69531 0.48619,-0.58486 1.13222,-1.17176 1.9375,-1.76172 0.90156,-0.6605 1.71069,-1.12478 2.42773,-1.39453 0.5426,-0.19575 1.03768,-0.3088 1.48438,-0.33594 z m 15.18945,13.05664 -21.80859,12.18946 2.85937,5.11328 6.64844,-3.71485 c 0.0201,0.85889 0.11207,1.65797 0.27735,2.39844 0.1558,0.74577 0.48786,1.57316 0.99609,2.48242 0.55059,0.98504 1.25656,1.80298 2.11719,2.45313 0.86062,0.65014 1.85074,1.10989 2.9707,1.37891 1.06619,0.26177 2.25063,0.2897 3.55273,0.084 1.30741,-0.19625 2.61901,-0.66256 3.93555,-1.39844 2.54784,-1.42411 4.24087,-3.09802 5.08008,-5.02148 0.8445,-1.91399 0.71137,-3.86645 -0.40039,-5.85547 -0.59824,-1.07028 -1.321,-1.90866 -2.16992,-2.51563 -0.84363,-0.59749 -1.79875,-1.11405 -2.86328,-1.55078 l 1.66211,-0.92968 z m -1.41797,7.50391 c 0.53409,0.31058 1.01541,0.68123 1.44336,1.11328 0.43743,0.42676 0.79055,0.88219 1.06055,1.36524 0.64059,1.14605 0.75794,2.18134 0.35352,3.10351 -0.40443,0.92217 -1.38222,1.81731 -2.93555,2.68555 -1.59122,0.88941 -2.97052,1.22416 -4.13672,1.00586 -1.15672,-0.2236 -2.11404,-1.01276 -2.87109,-2.36719 -0.21177,-0.37886 -0.40677,-0.77213 -0.58594,-1.18164 -0.17917,-0.40951 -0.29748,-0.82319 -0.35547,-1.23828 z m 12.25196,12.44922 -3.65625,1.54883 2.27343,5.36523 -13.17382,5.57813 2.28515,5.39648 13.17383,-5.58008 2.27149,5.36524 3.65625,-1.54883 z m 2.7539,21.79687 c -0.97759,0.0285 -2.02836,0.19708 -3.15039,0.50586 -2.79328,0.76873 -4.79569,2.03544 -6.00976,3.79883 -1.21408,1.76339 -1.49639,3.82705 -0.84571,6.19141 0.24185,0.87878 0.52891,1.59748 0.86329,2.1582 0.34483,0.55784 0.70314,1.01712 1.07226,1.37695 l -7.125,1.96094 1.53711,5.58594 7.10938,-1.95508 c -0.0753,0.38084 -0.1396,0.88139 -0.19336,1.50391 -0.0538,0.62251 0.0374,1.36284 0.27343,2.2207 0.31959,1.16125 0.79798,2.14362 1.43555,2.94727 0.65091,0.81122 1.4844,1.47076 2.50195,1.97851 1.00422,0.50017 2.15075,0.78201 3.43946,0.84375 1.29916,0.0589 2.70765,-0.12159 4.22461,-0.53906 2.79328,-0.76872 4.76663,-1.99853 5.92187,-3.68945 1.1657,-1.69381 1.42515,-3.71642 0.77735,-6.07032 -0.2217,-0.80555 -0.52825,-1.5315 -0.91993,-2.17773 -0.37833,-0.63865 -0.7375,-1.14841 -1.07812,-1.52734 l 7.39062,-2.03321 -1.53711,-5.58789 -7.40625,2.03906 c 0.11605,-0.43708 0.19396,-0.96951 0.23438,-1.59961 0.0433,-0.61963 -0.053,-1.35893 -0.28906,-2.21679 -0.29079,-1.05664 -0.7714,-2.00597 -1.44141,-2.84571 -0.67001,-0.83973 -1.48698,-1.49718 -2.45117,-1.97461 -1.00134,-0.4897 -2.12824,-0.78276 -3.38086,-0.87695 -0.30982,-0.0216 -0.62726,-0.0271 -0.95313,-0.0176 z m 0.86914,5.83203 c 0.69731,-0.0118 1.30448,0.0904 1.82032,0.3086 1.03454,0.4468 1.74814,1.38705 2.14258,2.82031 0.0806,0.29293 0.13899,0.5652 0.17382,0.81445 0.0482,0.25684 0.0781,0.46725 0.0899,0.63282 l -9.96485,2.74218 c -0.0908,-0.16633 -0.18351,-0.38219 -0.27929,-0.64843 -0.0929,-0.25579 -0.16898,-0.48803 -0.22657,-0.69727 -0.39443,-1.43326 -0.28866,-2.60438 0.31641,-3.51367 0.61841,-0.90171 1.80493,-1.59443 3.5625,-2.07813 0.87879,-0.24184 1.66792,-0.36902 2.36523,-0.38086 z m 5.74805,10.16797 c 0.12141,0.23669 0.22032,0.45668 0.29883,0.66016 0.0814,0.21394 0.15849,0.45135 0.23047,0.71289 0.39444,1.43326 0.28145,2.59508 -0.33985,3.48633 -0.60795,0.89883 -1.79125,1.59053 -3.54882,2.07422 -1.75758,0.48369 -3.15399,0.49633 -4.19141,0.0391 -1.03454,-0.44681 -1.75009,-1.38705 -2.14453,-2.82031 -0.072,-0.26155 -0.12648,-0.50502 -0.16602,-0.73047 -0.0395,-0.22546 -0.0693,-0.45433 -0.0879,-0.68555 z m 0.76758,16.86329 c -0.68385,-0.0256 -1.4013,0.008 -2.15234,0.10156 -2.98264,0.3712 -5.22731,1.53051 -6.73438,3.47851 -1.49496,1.95743 -2.0456,4.5082 -1.6543,7.65235 0.39131,3.14414 1.55071,5.47753 3.47852,6.99804 1.93991,1.52994 4.40018,2.10754 7.38281,1.73633 2.98263,-0.3712 5.22731,-1.53051 6.73438,-3.47851 1.5084,-1.93724 2.06586,-4.48862 1.67187,-7.6543 -0.38863,-3.12261 -1.54803,-5.45405 -3.47851,-6.99609 -1.44686,-1.14846 -3.19649,-1.76109 -5.24805,-1.83789 z m 0.0977,6.01757 c 0.46668,-0.006 0.88874,0.0195 1.26757,0.0762 0.759,0.12423 1.37178,0.33756 1.83594,0.64063 0.50182,0.34212 0.85424,0.71892 1.0586,1.13086 0.20569,0.42271 0.34437,0.91469 0.41406,1.47461 0.0697,0.55992 0.0427,1.09228 -0.0801,1.59961 -0.12275,0.50732 -0.38266,0.96182 -0.78125,1.36133 -0.38782,0.39816 -0.9316,0.73788 -1.62891,1.02148 -0.69731,0.2836 -1.57853,0.49233 -2.64453,0.625 -1.15213,0.14339 -2.06905,0.15895 -2.75,0.0469 -0.66884,-0.10265 -1.25767,-0.31357 -1.76758,-0.63282 -0.46148,-0.28153 -0.81328,-0.65347 -1.05664,-1.11523 -0.23124,-0.45234 -0.37964,-0.94114 -0.44531,-1.46875 -0.0764,-0.61376 -0.0495,-1.17493 0.084,-1.6836 0.13486,-0.49789 0.39248,-0.94692 0.76954,-1.34374 0.39725,-0.41028 0.94393,-0.75061 1.64257,-1.02344 0.70942,-0.27418 1.56016,-0.47437 2.55079,-0.59766 0.55453,-0.069 1.06456,-0.10518 1.53125,-0.11133 z m -3.94532,16.95703 -4.6875,0.008 c 1.9e-4,0.0976 -0.0153,0.40684 -0.0469,0.92773 -0.0424,0.52092 -0.0635,1.03689 -0.0625,1.54688 10e-4,0.65104 0.10693,1.32353 0.31445,2.01757 0.20754,0.70489 0.48396,1.27369 0.83203,1.70704 0.30456,0.37917 0.66508,0.75297 1.07813,1.12109 0.41307,0.37897 0.9718,0.73055 1.67773,1.05469 0.6951,0.33501 1.59116,0.6113 2.6875,0.82617 1.09634,0.21487 2.51852,0.35715 4.26563,0.42969 0.59683,0.0205 1.1176,0.0369 1.5625,0.0469 0.45577,0.0208 1.09043,0.0472 1.90429,0.0781 l 0.01,4.83398 -14.19336,0.0273 0.0117,5.85938 18.27734,-0.0371 -0.0312,-15.90039 c -1.23704,-0.0301 -2.34366,-0.0659 -3.32031,-0.10742 -0.97665,-0.0415 -1.84388,-0.0831 -2.60352,-0.125 -2.05099,-0.1045 -3.60324,-0.28179 -4.65625,-0.5293 -1.04213,-0.23668 -1.91155,-0.71772 -2.60742,-1.44336 -0.18484,-0.19495 -0.30452,-0.44433 -0.35937,-0.74805 -0.0548,-0.29286 -0.0834,-0.57921 -0.084,-0.86132 -2.1e-4,-0.10851 0.005,-0.21765 0.0156,-0.32618 0.0106,-0.10852 0.0157,-0.18511 0.0156,-0.22851 z m -4.96875,26.01172 -0.5957,4.81446 10.12305,9.2539 -11.09766,-1.37109 -0.69727,5.63672 18.14063,2.24219 0.66602,-5.39454 -9.03125,-8.52929 9.93359,1.22851 0.69727,-5.63867 z m 2.75,24.33594 c -1.6331,0.0111 -3.10894,0.41312 -4.42773,1.20703 -2.1022,1.28344 -3.54095,3.46067 -4.31445,6.53321 -0.77351,3.07253 -0.53564,5.66791 0.71093,7.7832 1.25445,2.12846 3.33726,3.5592 6.25196,4.29297 2.91469,0.73377 5.42704,0.46557 7.53711,-0.80469 2.10741,-1.25974 3.55127,-3.43767 4.33007,-6.53125 0.76821,-3.05149 0.53229,-5.64491 -0.70898,-7.78125 -1.24392,-2.12582 -3.33379,-3.55781 -6.26953,-4.29688 -1.09301,-0.27516 -2.12952,-0.40899 -3.10938,-0.40234 z m -0.99804,5.91406 c 0.76055,0.001 1.62569,0.12348 2.59375,0.36719 1.0838,0.27285 1.95785,0.60041 2.62304,0.98047 0.66254,0.39058 1.15556,0.81117 1.47852,1.26172 0.34393,0.50058 0.53677,0.97952 0.57812,1.4375 0.0387,0.4685 -0.0107,0.97627 -0.14843,1.52344 -0.13775,0.54716 -0.35622,1.03441 -0.6543,1.46289 -0.29809,0.42847 -0.70452,0.75626 -1.2207,0.98437 -0.50567,0.23076 -1.13599,0.35332 -1.88868,0.36524 -0.75268,0.0119 -1.64969,-0.11471 -2.6914,-0.37696 -1.1259,-0.28344 -1.9859,-0.60018 -2.58008,-0.95117 -0.58631,-0.33782 -1.05822,-0.74828 -1.41797,-1.23047 -0.32825,-0.4295 -0.52235,-0.90333 -0.58203,-1.42187 -0.0518,-0.50537 -0.0126,-1.01566 0.11719,-1.53125 0.15099,-0.59978 0.37889,-1.11129 0.6875,-1.53711 0.30596,-0.41531 0.70798,-0.74121 1.20312,-0.97461 0.51884,-0.23863 1.15231,-0.35798 1.90235,-0.35938 z"
           id="two-9-6"
           inkscape:connector-curvature="0" />
      </g>
    </g>
    <g
       id="three">
      <g
         id="galary">
         <a
           xlink:href="../gallery.html"
           target="_parent">
         <path
            inkscape:label="#path4602-2-5-1"
            sodipodi:nodetypes="ccccccc"
            id="three-3"
            d="m 366.07036,291.24314 c -16.63319,48.97469 -62.99787,84.21566 -117.59603,84.21558 -0.14295,-4e-5 -0.2848,-0.004 -0.4276,-0.008 l 0.1049,121.2133 c 0.47042,0.003 0.93789,0.0185 1.40874,0.0185 108.44042,-2.2e-4 200.52001,-70.04882 233.45692,-167.36599 z"
            style="opacity:0.84459462;fill:url(#linearGradient5047-4);fill-opacity:1;stroke:none;stroke-width:0.97734201;stroke-opacity:1"
            inkscape:connector-curvature="0" />
          </a>
        <g
           id="three-1">
           <text
              transform="matrix(3.6938913,0,0,3.6938913,-174.4812,-23.342675)"
              xml:space="preserve"

              x="113.98994"
              y="71.549156"
              id="galary-1"
              inkscape:label="#text5252-3"><tspan
                sodipodi:role="line"
                id="tspan5250-4"
                x="113.98994"
                y="71.549156"
                >Фото</tspan><tspan
                sodipodi:role="line"
                x="113.98994"
                y="82.573463"

                id="tspan5350">галерея</tspan></text>
        </g>
        <path
           style="opacity:0.84459462;fill:#ff6600;fill-opacity:1;stroke:none;stroke-width:0.97734201;stroke-opacity:1"
           d="m 402.60694,379.9041 c -0.31706,-0.003 -0.63525,0.0129 -0.95703,0.0449 -1.28709,0.12822 -2.58125,0.5198 -3.88281,1.17773 -1.29376,0.66548 -2.57692,1.57006 -3.84766,2.71094 l -1.90624,-1.8457 -4.32422,4.46679 1.90625,1.84571 c -1.13697,1.3459 -1.99838,2.65603 -2.58399,3.93164 -0.59315,1.2834 -0.94546,2.58253 -1.05469,3.89648 -0.0941,1.29836 0.1002,2.54923 0.58008,3.75391 0.47988,1.20467 1.25625,2.32756 2.33203,3.36914 1.09138,1.05667 2.23916,1.80513 3.44336,2.24609 1.20446,0.45631 2.42886,0.62162 3.66992,0.49414 1.26396,-0.13552 2.53434,-0.54403 3.8125,-1.22461 1.27842,-0.66523 2.57511,-1.60588 3.89063,-2.82422 l 1.77734,1.72071 4.32422,-4.4668 -1.77734,-1.7207 c 1.10653,-1.33007 1.98317,-2.67208 2.62891,-4.02539 0.65353,-1.34577 1.02375,-2.63409 1.11132,-3.86329 0.0793,-1.26742 -0.11238,-2.47977 -0.57617,-3.63867 -0.46379,-1.15889 -1.24065,-2.26754 -2.33203,-3.32422 -1.08358,-1.04912 -2.23161,-1.78949 -3.44336,-2.22265 -0.90881,-0.32488 -1.83982,-0.49286 -2.79102,-0.50196 z m -2.28124,5.38282 c 0.15371,1.5e-4 0.30514,0.009 0.45507,0.0273 1.19975,0.16479 2.41087,0.84041 3.63477,2.02539 1.16933,1.13215 1.80606,2.30697 1.91016,3.52539 0.11188,1.22597 -0.29611,2.49073 -1.22657,3.79492 l -8.27929,-8.01562 c 1.26108,-0.90667 2.42985,-1.3585 3.50586,-1.35742 z m -7.83008,5.82422 8.27734,8.01562 c -1.21988,0.96356 -2.46697,1.40324 -3.74219,1.31641 -1.27522,-0.0868 -2.47314,-0.67486 -3.5957,-1.76172 -1.23949,-1.20008 -1.96086,-2.38991 -2.16406,-3.56836 -0.20296,-1.16311 0.20531,-2.49681 1.22461,-4.00195 z m -16.6836,8.5039 c -2.14681,-0.01 -4.31672,0.83522 -6.50976,2.53125 -2.50633,1.93832 -3.92354,4.12316 -4.25,6.55664 -0.32841,2.4487 0.42687,4.86266 2.26562,7.24024 1.83875,2.37758 3.97982,3.71883 6.42383,4.02343 2.43543,0.31124 4.91596,-0.50934 7.43945,-2.46093 2.48917,-1.92505 3.90638,-4.11184 4.25,-6.5586 0.33505,-2.44011 -0.42531,-4.8572 -2.27734,-7.25195 -1.83875,-2.37758 -3.97982,-3.71884 -6.42383,-4.02344 -0.30574,-0.0362 -0.61128,-0.0553 -0.91797,-0.0566 z m -1.79687,4.89844 c 0.25767,-0.004 0.52033,0.0248 0.78711,0.0859 0.55541,0.13286 1.12808,0.43034 1.71875,0.89258 0.5973,0.47081 1.19984,1.10291 1.81054,1.89257 0.68373,0.88409 1.17068,1.68084 1.45899,2.39063 0.27972,0.71643 0.40718,1.35049 0.38281,1.9043 -0.0388,0.6061 -0.18319,1.10259 -0.43359,1.48828 -0.25899,0.39232 -0.61226,0.76029 -1.0586,1.10547 -0.44633,0.34518 -0.91887,0.59525 -1.41796,0.74804 -0.4991,0.1528 -1.02154,0.15903 -1.56836,0.0195 -0.54019,-0.13091 -1.10974,-0.42526 -1.70899,-0.88086 -0.59925,-0.45559 -1.22759,-1.10728 -1.88476,-1.95703 -0.71028,-0.91841 -1.19099,-1.69873 -1.44141,-2.34179 -0.25237,-0.62785 -0.37045,-1.24234 -0.35547,-1.84375 0.007,-0.54053 0.14652,-1.03389 0.41992,-1.47852 0.27146,-0.42941 0.61848,-0.80755 1.03907,-1.13281 0.48924,-0.37837 0.98645,-0.63899 1.49218,-0.7832 0.24858,-0.0688 0.50209,-0.10557 0.75977,-0.10938 z m -18.63086,8.14844 -4.98828,3.07422 7.50781,12.17773 -4.96094,3.05859 2.08399,3.38086 14.9082,-9.18945 -2.08398,-3.38086 -4.96094,3.05664 z m -15.55858,9.4707 c -1.58015,0.007 -3.2654,0.43652 -5.05274,1.28906 -2.85974,1.36407 -4.70505,3.20048 -5.53906,5.50977 -0.83914,2.32375 -0.61235,4.84185 0.68164,7.55469 1.29399,2.71283 3.10353,4.47809 5.42773,5.29296 2.31442,0.81955 4.91169,0.54138 7.79102,-0.83203 2.84015,-1.35472 4.68546,-3.19113 5.53906,-5.50976 0.8438,-2.31396 0.61387,-4.83594 -0.68945,-7.56836 -1.294,-2.71283 -3.10158,-4.47809 -5.42578,-5.29297 -0.8735,-0.30015 -1.78434,-0.44758 -2.73242,-0.44336 z m -1.7129,4.54688 c 0.51501,-0.0293 1.02005,0.0722 1.51563,0.30468 0.51472,0.24738 1.01271,0.65957 1.49219,1.23633 0.48415,0.58655 0.94132,1.33141 1.37109,2.23242 0.48116,1.00875 0.78639,1.88981 0.91797,2.64453 0.12179,0.7594 0.11366,1.40725 -0.0273,1.94336 -0.16617,0.58418 -0.41389,1.03736 -0.74024,1.36133 -0.33614,0.32864 -0.75831,0.61451 -1.26758,0.85742 -0.50927,0.24292 -1.02284,0.38792 -1.54297,0.43164 -0.52012,0.0437 -1.03413,-0.0604 -1.53906,-0.3125 -0.50025,-0.24225 -0.9951,-0.65057 -1.48437,-1.22265 -0.48928,-0.57209 -0.96526,-1.34293 -1.42774,-2.3125 -0.49984,-1.04792 -0.80343,-1.91225 -0.91211,-2.59375 -0.11379,-0.66703 -0.0989,-1.29233 0.043,-1.87695 0.12142,-0.52677 0.36136,-0.97877 0.72266,-1.35547 0.35617,-0.36225 0.77402,-0.65782 1.2539,-0.88672 0.55824,-0.26628 1.10021,-0.41724 1.625,-0.45117 z"
           id="three-6-4"
           inkscape:connector-curvature="0" />
        <path
           style="font-style:normal;font-variant:normal;font-weight:bold;font-stretch:normal;font-size:33.33333206px;line-height:1.25;font-family:sans-serif;-inkscape-font-specification:'sans-serif, Bold';font-variant-ligatures:normal;font-variant-caps:normal;font-variant-numeric:normal;font-feature-settings:normal;text-align:center;letter-spacing:0px;word-spacing:0px;writing-mode:lr-tb;text-anchor:middle;fill:#ff6600;fill-opacity:1;stroke:none"
           d="m 390.90476,321.7225 -3.19727,4.91016 11.9082,7.75195 -4.86523,7.47461 3.41015,2.22071 8.0625,-12.38672 z m -8.60352,15.71094 c -0.19228,0.009 -0.38737,0.0258 -0.58398,0.0547 -1.57288,0.23086 -2.90806,1.02064 -4.00391,2.36719 -0.46574,0.57228 -0.84145,1.13927 -1.13086,1.70117 -0.29782,0.55505 -0.52844,1.13762 -0.68945,1.74805 -0.10878,0.44308 -0.17928,0.95118 -0.21289,1.52539 -0.0336,0.5742 -0.0568,1.05838 -0.0703,1.45312 l -1.50389,-1.2207 -3.66602,4.50586 9.64452,7.84961 c 1.70002,1.38351 3.41316,1.81971 5.14258,1.31054 1.73099,-0.4939 3.64929,-2.03154 5.75195,-4.61523 0.88353,-1.08566 1.67798,-2.24317 2.38477,-3.47266 0.70836,-1.21422 1.19483,-2.11287 1.45898,-2.69531 l -3.42187,-2.78516 -0.33789,0.41602 c -0.15829,0.48673 -0.45391,1.26189 -0.88477,2.32422 -0.42244,1.06918 -0.93731,1.9795 -1.54687,2.72851 -1.01366,1.24556 -1.93236,2.06399 -2.75586,2.45703 -0.81509,0.3999 -1.6138,0.2815 -2.39649,-0.35546 l -0.0762,-0.0625 c 1.01326,-1.39978 1.94703,-2.78642 2.80078,-4.16211 0.85376,-1.37569 1.43405,-2.63926 1.74024,-3.78907 0.31304,-1.15821 0.32857,-2.23531 0.0488,-3.23242 -0.27975,-0.9971 -0.9375,-1.91733 -1.97266,-2.75976 -1.13405,-0.92291 -2.37276,-1.35241 -3.71875,-1.29102 z m -0.83594,5.61133 c 0.13974,0.009 0.26774,0.0378 0.38086,0.0879 0.22625,0.10018 0.48669,0.27005 0.78125,0.50977 0.44605,0.363 0.70762,0.77174 0.78516,1.22656 0.0791,0.47008 0.004,0.9916 -0.22266,1.5625 -0.18353,0.46619 -0.52347,1.09115 -1.02148,1.875 -0.4896,0.79069 -0.95872,1.51446 -1.40821,2.16992 l -2.95507,-2.4043 c -0.0153,-0.60003 0.077,-1.21201 0.27539,-1.83398 0.19154,-0.61356 0.47194,-1.1471 0.84179,-1.60156 0.46574,-0.57229 0.84572,-0.96226 1.14063,-1.16993 0.30333,-0.20081 0.61751,-0.33013 0.94336,-0.38671 0.16635,-0.0325 0.31925,-0.044 0.45898,-0.0352 z m -12.96288,8.88477 c -0.0704,0.0677 -0.30531,0.26968 -0.70312,0.60742 -0.40534,0.32992 -0.79274,0.67172 -1.16016,1.02539 -0.46905,0.45149 -0.88093,0.99292 -1.23828,1.62304 -0.36517,0.63765 -0.58435,1.23205 -0.65625,1.78321 -0.0629,0.48226 -0.0846,0.99982 -0.0644,1.55273 0.0123,0.56044 0.1458,1.20752 0.40039,1.94141 0.23925,0.73359 0.66196,1.57165 1.26562,2.51172 0.60366,0.94007 1.48385,2.06565 2.64063,3.37695 0.39823,0.44501 0.74617,0.83016 1.04687,1.1582 0.30041,0.34339 0.72276,0.8208 1.26367,1.42969 l -3.48437,3.35156 -9.8418,-10.22461 -4.2207,4.0625 12.67578,13.16993 11.45507,-11.0293 c -0.83438,-0.91377 -1.57474,-1.73703 -2.22071,-2.4707 -0.64596,-0.73368 -1.21546,-1.38947 -1.71092,-1.9668 -1.34403,-1.55276 -2.29169,-2.79519 -2.8418,-3.72656 -0.5504,-0.91603 -0.8039,-1.87637 -0.76172,-2.88086 0.0128,-0.26835 0.10975,-0.52561 0.29102,-0.77539 0.17345,-0.24226 0.36119,-0.46256 0.56445,-0.65821 0.0782,-0.0752 0.16039,-0.14546 0.24609,-0.21289 0.0857,-0.0674 0.14452,-0.11638 0.17579,-0.14648 l 0.1289,-0.125 z m -19.07226,20.29882 c -2.55257,-0.13914 -5.29202,0.89722 -8.21876,3.10742 -1.13433,0.85662 -2.09736,1.73415 -2.88868,2.63086 -0.79131,0.89672 -1.55503,1.95568 -2.29101,3.17774 l 2.83398,3.7539 0.51953,-0.39257 c 0.22953,-0.8124 0.67362,-1.74609 1.33204,-2.80078 0.65841,-1.0547 1.48162,-1.95572 2.46875,-2.70118 1.55862,-1.17703 2.9694,-1.76557 4.23242,-1.76757 1.25437,0.005 2.34883,0.5519 3.28126,1.64257 l -10.70314,8.08203 1.23633,1.63672 c 1.70015,2.25134 3.59798,3.52386 5.69531,3.81641 2.10388,0.30121 4.34229,-0.44463 6.71486,-2.23633 2.57172,-1.9421 4.06564,-4.17743 4.48047,-6.70703 0.4127,-2.5144 -0.28957,-4.97561 -2.10743,-7.38281 -1.83747,-2.43318 -4.03338,-3.72024 -6.58593,-3.85938 z m -21.1504,4.7793 -5.06055,2.95508 3.83984,6.57617 c -0.85836,0.0363 -1.65533,0.14507 -2.39258,0.32422 -0.74271,0.16978 -1.56332,0.51775 -2.46289,1.04297 -0.97452,0.56898 -1.78019,1.28943 -2.41406,2.16211 -0.63387,0.87268 -1.07433,1.87128 -1.32226,2.99609 -0.24171,1.07091 -0.24772,2.25472 -0.0176,3.55274 0.22076,1.30348 0.71218,2.60766 1.47265,3.91015 1.4717,2.52066 3.17636,4.18143 5.11524,4.98438 1.92951,0.80841 3.8779,0.63914 5.8457,-0.50977 1.05886,-0.61822 1.88369,-1.35858 2.47461,-2.21875 0.58155,-0.85469 1.08138,-1.81808 1.49805,-2.89062 l 0.96094,1.64453 5.05859,-2.95313 z m 24.50196,4.60156 c 0.70887,1.08274 0.9497,2.07672 0.72266,2.98242 -0.22705,0.90571 -0.79087,1.69885 -1.69141,2.37891 -0.96981,0.73237 -1.87147,1.0259 -2.70313,0.87891 -0.83165,-0.147 -1.62965,-0.70131 -2.39454,-1.66016 z m -24.07228,7.75586 4.63672,7.94141 c -0.30049,0.53982 -0.662,1.0269 -1.08594,1.46289 -0.41846,0.44536 -0.8678,0.80887 -1.3457,1.08789 -1.13383,0.66199 -2.1661,0.79915 -3.0957,0.41211 -0.9296,-0.38704 -1.84299,-1.34996 -2.74024,-2.88672 -0.91912,-1.57424 -1.28035,-2.94514 -1.08398,-4.11523 0.20184,-1.16072 0.97252,-2.13171 2.3125,-2.91407 0.37482,-0.21884 0.7658,-0.42254 1.17187,-0.60937 0.40608,-0.18683 0.81654,-0.31314 1.23047,-0.37891 z m -20.98828,6.96289 c -1.74493,0.0533 -3.66791,0.53471 -5.77148,1.44531 -1.30447,0.56469 -2.44713,1.18844 -3.42774,1.87305 -0.9806,0.68461 -1.97293,1.53501 -2.97656,2.54883 l 1.86914,4.31641 0.59766,-0.25977 c 0.41478,-0.73527 1.06633,-1.53675 1.95508,-2.40625 0.88874,-0.8695 1.89997,-1.54961 3.03515,-2.04101 1.7924,-0.7759 3.30344,-1.01687 4.53125,-0.72071 1.21785,0.30047 2.15018,1.09116 2.79883,2.3711 l -12.30859,5.32812 0.8164,1.88281 c 1.12074,2.58902 2.66574,4.27147 4.63477,5.05078 1.97333,0.78928 4.32236,0.59516 7.05078,-0.58593 2.95745,-1.28024 4.93734,-3.10072 5.9375,-5.46094 0.99451,-2.34595 0.89169,-4.90362 -0.30664,-7.67188 -1.21126,-2.79812 -3.04068,-4.567 -5.48828,-5.30468 -0.91785,-0.27663 -1.90031,-0.39723 -2.94727,-0.36524 z m -14.70117,5.78907 -6.28516,1.87109 -2.38476,7.33398 -2.51172,0.74805 -1.8125,-6.08398 -5.59961,1.66992 5.21875,17.51562 10.43555,-3.10742 c 0.95671,-0.285 1.7965,-0.64234 2.51757,-1.07226 0.71068,-0.42683 1.29187,-0.92274 1.7461,-1.48829 0.50534,-0.66002 0.85337,-1.37672 1.04297,-2.14648 0.1792,-0.76667 0.12403,-1.6325 -0.16407,-2.59961 -0.4244,-1.42467 -1.05756,-2.45253 -1.90234,-3.08398 -0.85208,-0.61796 -1.94621,-1.01697 -3.2793,-1.19727 z m 18.69141,4.48242 c 0.43329,1.21945 0.43244,2.24378 -0.002,3.07031 -0.4344,0.82652 -1.16947,1.46381 -2.20507,1.91211 -1.11527,0.48278 -2.05857,0.55398 -2.83204,0.21484 -0.77346,-0.33913 -1.41858,-1.06544 -1.93554,-2.17773 z m -24.47266,7.74804 c 0.34428,-0.003 0.65058,0.0534 0.91797,0.17188 0.53479,0.23696 0.92324,0.76636 1.16797,1.58789 0.19826,0.66554 0.13663,1.23294 -0.1875,1.70312 -0.33144,0.48368 -0.88281,0.84108 -1.65235,1.07032 l -3.32226,0.98828 -1.30078,-4.36719 3.22851,-0.96094 c 0.42117,-0.12546 0.80416,-0.18986 1.14844,-0.19336 z"
           id="text4651-0-3"
           inkscape:connector-curvature="0" />
      </g>
    </g>
    <g
       id="graphic">
      <g
         id="graphic-1">
         <a
           xlink:href="../graphics.html"
           target="_parent">
         <path
            inkscape:label="#path4602-2-96-6"
            sodipodi:nodetypes="cccccc"
            id="four-8"
            d="M 131.08528,290.32761 16.106268,327.7625 C 48.297454,424.98205 139.38811,495.36382 247.1084,496.63268 l -0.1049,-121.21141 c -54.06993,-0.84509 -99.7466,-36.24822 -115.91808,-85.09366 z"
            style="opacity:0.84459462;fill:url(#linearGradient5049-9);fill-opacity:1;stroke:none;stroke-width:0.97734201;stroke-opacity:1"
            inkscape:connector-curvature="0" />
          </a>
        <g
           id="four">
           <text
              transform="matrix(3.6938913,0,0,3.6938913,-174.4812,-23.342675)"
              xml:space="preserve"

              x="95.238785"
              y="77.399445"
              id="text5252-2"><tspan
                sodipodi:role="line"
                id="tspan5250-9"
                x="95.238785"
                y="77.399445"
                >Графика</tspan></text>
        </g>
        <path
           style="opacity:0.84459462;fill:#ff6600;fill-opacity:1;stroke:none;stroke-width:0.97734201;stroke-opacity:1"
           d="m 91.511189,330.72052 -10.53125,6.61329 c -1.85623,1.16558 -2.82127,2.64984 -2.89453,4.45117 -0.0882,1.7979 0.75393,4.10664 2.52539,6.92773 0.74436,1.18541 1.58415,2.31076 2.52148,3.375 0.92238,1.06082 1.61725,1.80886 2.08399,2.2461 l 3.73633,-2.34571 -0.28711,-0.45508 c -0.41011,-0.30623 -1.04836,-0.83279 -1.91602,-1.58203 -0.87685,-0.74346 -1.57239,-1.52395 -2.08594,-2.34179 -0.85399,-1.36001 -1.33368,-2.49428 -1.4414,-3.40039 -0.11692,-0.90034 0.25087,-1.61767 1.10547,-2.1543 l 0.084,-0.0527 c 1.00017,1.40916 2.01438,2.73987 3.04297,3.99024 1.02859,1.25037 2.0368,2.20402 3.02734,2.86328 0.99631,0.66845 2.01275,1.03061 3.04688,1.08594 1.03412,0.0553 2.11582,-0.27073 3.24609,-0.98047 1.41514,-0.88862 2.26619,-2.116 2.55274,-3.67969 0.28655,-1.56369 -0.0319,-3.0805 -0.95508,-4.55078 -0.39238,-0.62487 -0.80888,-1.1646 -1.24805,-1.61914 -0.42998,-0.46032 -0.90723,-0.86435 -1.43359,-1.21289 -0.38468,-0.24533 -0.84397,-0.4771 -1.37696,-0.69336 -0.53298,-0.21626 -0.98401,-0.39366 -1.35351,-0.5332 l 1.64062,-1.0293 z m -0.94922,7.45703 c 0.57316,0.17822 1.12314,0.46196 1.64844,0.84961 0.51952,0.37847 0.9345,0.81629 1.24609,1.3125 0.39238,0.62487 0.63829,1.10909 0.74024,1.45508 0.0928,0.35176 0.11357,0.69082 0.0625,1.01758 -0.0453,0.33595 -0.15082,0.59526 -0.31836,0.77734 -0.16754,0.18208 -0.41275,0.37422 -0.73438,0.57618 -0.48703,0.30582 -0.95844,0.42226 -1.41406,0.34961 -0.47058,-0.0761 -0.93844,-0.31282 -1.40625,-0.71094 -0.38254,-0.32354 -0.8649,-0.84693 -1.44727,-1.57031 -0.59155,-0.71762 -1.1252,-1.39506 -1.60156,-2.03125 z m 11.550781,9.38086 -3.177731,11.0586 c -0.35955,-0.10064 -0.71703,-0.13207 -1.07617,-0.0937 -0.3676,0.0451 -0.83457,0.1417 -1.39844,0.28906 -0.67562,0.18158 -1.2583,0.22655 -1.75,0.13477 -0.4985,-0.10024 -0.95316,-0.40296 -1.36133,-0.91016 l -1,-1.24414 -3.80273,3.0625 c 0.10204,0.1268 0.29405,0.3758 0.57812,0.74609 0.27727,0.36185 0.54618,0.70221 0.80469,1.02344 0.89117,1.10739 1.79005,1.81036 2.69922,2.10938 0.89391,0.29736 1.94194,0.34627 3.14453,0.14453 0.26761,-0.0482 0.64727,-0.12322 1.13672,-0.22461 0.48944,-0.1014 0.89496,-0.17649 1.21679,-0.22657 1.08404,-0.17597 1.84327,-0.17641 2.279301,0.002 0.42757,0.18517 0.98705,0.69857 1.67578,1.53711 l -5.718751,4.60156 3.671881,4.56445 14.24023,-11.45898 -3.67383,-4.56445 -5.64258,4.54101 -1.17187,-1.45898 2.57031,-8.35742 z m 15.875,19.26563 -12.74219,13.10547 3.89649,3.78906 12.2539,-2.04687 -6.97851,7.17578 4.07227,3.95898 12.74218,-13.10351 -3.47851,-3.38086 -13.48828,2.47851 7.79492,-8.01562 z m 29.72852,17.35156 -4.30078,5.98828 c -0.18071,-0.34358 -0.44568,-0.77485 -0.79493,-1.29297 -0.34925,-0.51811 -0.8848,-1.03751 -1.60742,-1.55664 -0.97817,-0.70272 -1.96783,-1.16589 -2.96875,-1.39062 -1.01606,-0.22225 -2.08073,-0.211 -3.1914,0.0332 -1.09553,0.24172 -2.16364,0.74235 -3.20508,1.50391 -1.04778,0.77036 -2.03124,1.79447 -2.94922,3.07226 -1.69034,2.3529 -2.45253,4.55046 -2.28906,6.5918 0.15713,2.05016 1.2262,3.78649 3.20898,5.21094 0.67855,0.48747 1.37327,0.86045 2.08399,1.11719 0.69557,0.25921 1.29576,0.42892 1.79882,0.50976 l -4.47265,6.22656 4.70508,3.38086 4.48242,-6.24023 c 0.18429,0.41297 0.45787,0.8789 0.82226,1.39453 0.35558,0.5093 0.89458,1.02188 1.61719,1.54102 0.89005,0.63941 1.85938,1.07616 2.9082,1.30859 1.04883,0.23243 2.09834,0.23232 3.14844,-0.002 1.08672,-0.24806 2.1479,-0.72972 3.18164,-1.44336 1.01861,-0.71116 1.98141,-1.69687 2.88672,-2.95703 1.69034,-2.3529 2.45227,-4.59774 2.28906,-6.73243 -0.16321,-2.13468 -1.24083,-3.91688 -3.23242,-5.34765 -0.74024,-0.5318 -1.41493,-0.91053 -2.02734,-1.13672 -0.61874,-0.21738 -1.18597,-0.35037 -1.69922,-0.39844 l 4.3125,-6 z m -9.94922,6.79102 c 0.83702,-0.007 1.70781,0.31434 2.61328,0.96484 0.22031,0.15827 0.41745,0.31232 0.58984,0.46289 0.1724,0.15057 0.33831,0.31032 0.49805,0.47852 l -6.02148,8.38086 c -0.24315,-0.10788 -0.45758,-0.21718 -0.64649,-0.32618 -0.19772,-0.11532 -0.40664,-0.25188 -0.62695,-0.41015 -1.20729,-0.86733 -1.84927,-1.84206 -1.92578,-2.92578 -0.0917,-1.08125 0.39344,-2.36328 1.45703,-3.84375 1.06358,-1.48048 2.14191,-2.3681 3.23633,-2.66406 0.2714,-0.0756 0.54716,-0.11472 0.82617,-0.11719 z m 8.40625,5.28711 c 0.17513,0.0724 0.38517,0.18114 0.62695,0.32812 0.23297,0.14065 0.43704,0.27573 0.61328,0.40235 1.2073,0.86732 1.86047,1.84406 1.96094,2.93164 0.0853,1.09005 -0.40321,2.37499 -1.4668,3.85547 -1.06358,1.48047 -2.13414,2.37496 -3.21093,2.68359 -1.08561,0.30229 -2.23216,0.0197 -3.43946,-0.84766 -0.24674,-0.17726 -0.46084,-0.35139 -0.64453,-0.52343 -0.19883,-0.16957 -0.35556,-0.3161 -0.46875,-0.4375 z m 15.61133,5.375 -5.72657,11.03906 c -1.00926,1.94565 -1.08819,3.71283 -0.23828,5.30273 0.83529,1.59454 2.73051,3.15948 5.6875,4.69336 1.24252,0.64454 2.53733,1.1886 3.88477,1.63086 1.33281,0.4469 2.31158,0.74055 2.93555,0.88086 l 2.03125,-3.91601 -0.47657,-0.24805 c -0.50874,-0.0561 -1.32736,-0.18653 -2.45507,-0.39258 -1.13271,-0.19641 -2.12714,-0.51626 -2.98438,-0.96094 -1.42552,-0.73946 -2.41464,-1.47274 -2.9668,-2.19921 -0.55715,-0.71685 -0.60333,-1.52416 -0.13867,-2.41993 l 0.0449,-0.0859 c 1.57644,0.70773 3.12408,1.34002 4.64453,1.89648 1.52046,0.55646 2.87448,0.86739 4.0625,0.93359 1.19766,0.0712 2.25631,-0.13093 3.17579,-0.60742 0.91947,-0.47649 1.68818,-1.30746 2.30273,-2.49219 0.76944,-1.48331 0.87959,-2.97167 0.33398,-4.46484 -0.5456,-1.49317 -1.5878,-2.64003 -3.1289,-3.43945 -0.65497,-0.33976 -1.28751,-0.59446 -1.89649,-0.76367 -0.60398,-0.17885 -1.22115,-0.28472 -1.85156,-0.31836 -0.45595,-0.0165 -0.96805,0.0178 -1.53711,0.10156 -0.56906,0.0837 -1.04825,0.15955 -1.4375,0.22656 l 0.89258,-1.7207 z m 3.86328,6.78125 c 0.30843,-0.0172 0.62456,-0.009 0.94922,0.0254 0.63967,0.0629 1.21815,0.22824 1.73828,0.49804 0.65497,0.33976 1.11565,0.63429 1.3789,0.88086 0.25826,0.25621 0.44676,0.53815 0.56836,0.84571 0.13124,0.31255 0.17127,0.58819 0.11914,0.83007 -0.0521,0.24189 -0.16497,0.53203 -0.33984,0.86915 -0.26481,0.51049 -0.61144,0.84925 -1.04102,1.01757 -0.4442,0.17296 -0.96915,0.20763 -1.57421,0.10157 -0.49376,-0.085 -1.17625,-0.29272 -2.04493,-0.6211 -0.87367,-0.31874 -1.67704,-0.63055 -2.41015,-0.9375 l 1.7539,-3.38086 c 0.29221,-0.0684 0.59392,-0.11165 0.90235,-0.1289 z m 29.6875,1.16406 -2.66797,7.13477 c -0.57086,-0.64204 -1.15871,-1.19254 -1.76367,-1.6504 -0.60117,-0.46802 -1.38953,-0.88326 -2.36524,-1.24804 -1.05701,-0.39518 -2.12429,-0.56272 -3.20117,-0.50196 -1.07688,0.0608 -2.12808,0.34997 -3.15625,0.86914 -0.98247,0.48993 -1.90362,1.23532 -2.76367,2.23438 -0.87021,0.99526 -1.56949,2.19858 -2.09766,3.61133 -1.02214,2.73401 -1.23093,5.10546 -0.62695,7.11523 0.59381,2.00598 1.95744,3.40908 4.0918,4.20703 1.14849,0.42938 2.24317,0.60176 3.2832,0.51563 1.02986,-0.0899 2.09118,-0.31451 3.18555,-0.66992 l -0.66602,1.78515 5.48828,2.05078 8.74805,-23.40039 z m -8.11719,8.56836 c 0.62006,-0.009 1.29479,0.12285 2.02149,0.39453 0.40654,0.15199 0.80942,0.32699 1.21093,0.52344 0.40151,0.19644 0.75957,0.43381 1.07227,0.71289 l -3.2207,8.61328 c -0.60822,0.10855 -1.21449,0.13672 -1.82032,0.084 -0.60963,-0.0426 -1.17501,-0.15972 -1.69336,-0.35351 -1.22979,-0.45978 -1.98741,-1.17378 -2.27539,-2.13867 -0.28798,-0.9649 -0.12121,-2.28044 0.50196,-3.94727 0.63836,-1.70749 1.47327,-2.85365 2.5039,-3.44141 0.51342,-0.28879 1.07916,-0.4387 1.69922,-0.44726 z m 25.43164,3.51367 -4.66406,18.98242 -10.90625,-2.67968 -1.11719,4.55273 16.97656,4.16992 5.7793,-23.53515 z"
           id="four-9"
           inkscape:connector-curvature="0" />
      </g>
    </g>
    <g
       id="contacts">
      <g
         id="contacts-1">
         <a
           xlink:href="../contacts.html"
           target="_parent">
         <path
            inkscape:label="#path4602-2-00-5"
            sodipodi:nodetypes="ccccccc"
            id="five-4"
            d="M 101.47114,53.05185 C 41.691892,98.01223 3.028932,169.53726 3.028747,250.09698 3.028562,276.66812 7.2514544,302.24883 15.033636,326.2247 L 130.01449,288.78981 c -3.78055,-11.88332 -5.82974,-24.53906 -5.82974,-37.67539 6e-4,-40.46868 19.36486,-76.4101 49.32911,-99.07808 z"
            style="opacity:0.84459462;fill:url(#linearGradient5051-2);fill-opacity:1;stroke:none;stroke-width:0.97734201;stroke-opacity:1"
            inkscape:connector-curvature="0" />
          </a>
        <g
           id="five">
           <text
              transform="matrix(3.6938913,0,0,3.6938913,-174.4812,-23.342675)"
              xml:space="preserve"

              x="93.938713"
              y="76.74942"
              id="text5252-91"><tspan
                sodipodi:role="line"
                id="tspan5250-7"
                x="93.938713"
                y="76.74942"
                >Контакты</tspan></text>
        </g>
        <path
           inkscape:connector-curvature="0"
           style="opacity:0.84459462;fill:#ff6600;fill-opacity:1;stroke:none;stroke-width:0.97734201;stroke-opacity:1"
           d="m 113.87541,107.826 -3.83984,4.42773 13.81054,11.97266 3.83789,-4.42578 z m -0.21484,12.2832 c -0.20141,0.0139 -0.40271,0.0429 -0.60157,0.0859 -0.88616,0.19387 -1.6654,0.53722 -2.33789,1.03125 -0.67357,0.47872 -1.44069,1.21504 -2.30078,2.20703 l -2.93164,3.38086 -4.61133,-3.99805 -3.828118,4.41602 13.810538,11.97265 6.74805,-7.7832 c 0.87431,-1.00839 1.47365,-1.89077 1.79688,-2.64453 0.33033,-0.76196 0.51247,-1.61602 0.54492,-2.56445 0.0138,-0.77789 -0.15883,-1.56565 -0.51563,-2.36329 -0.35679,-0.79763 -0.88674,-1.50197 -1.59179,-2.11328 -0.72145,-0.62552 -1.50072,-1.07845 -2.33594,-1.35742 -0.62724,-0.22071 -1.24148,-0.31112 -1.8457,-0.26953 z m -1.06446,5.57031 c 0.44862,0.0416 0.89519,0.25483 1.33789,0.63867 0.20496,0.17771 0.38496,0.37592 0.53907,0.59571 0.15411,0.21978 0.26079,0.47768 0.32031,0.77343 0.0748,0.29466 0.0558,0.63878 -0.0547,1.03125 -0.1187,0.38537 -0.37006,0.79949 -0.75391,1.24219 l -2.08984,2.41016 -3.60156,-3.125 2.08984,-2.41016 c 0.57577,-0.66406 1.16289,-1.04399 1.76367,-1.14062 0.1502,-0.0242 0.29968,-0.0295 0.44922,-0.0156 z m -18.546868,5.93555 -9.68164,14.59375 3.30859,2.19531 3.2207,-4.85547 11.921878,7.90821 3.24023,-4.88282 -11.921868,-7.9082 3.2207,-4.85547 z m -11.46485,17.49609 c -0.0752,0.14434 -0.22594,0.42132 -0.45117,0.83008 -0.22021,0.39914 -0.42665,0.78277 -0.61718,1.14844 -0.65684,1.26058 -0.93852,2.3656 -0.84766,3.31836 0.0862,0.93812 0.46165,1.91883 1.1289,2.93945 0.15154,0.22578 0.37288,0.54157 0.66211,0.94922 0.28924,0.40765 0.52034,0.74873 0.69532,1.02344 0.5961,0.92237 0.90056,1.61888 0.91211,2.08984 0.002,0.46595 -0.2426,1.1831 -0.73438,2.15039 l -6.50976,-3.39258 -2.70704,5.19727 16.20899,8.44531 2.70703,-5.19531 -6.42383,-3.34766 0.86524,-1.66015 8.6875,-0.99805 3.1289,-6.00391 -11.40429,1.52735 c -0.0521,-0.36972 -0.16652,-0.71179 -0.34571,-1.02539 -0.18881,-0.31862 -0.46496,-0.70668 -0.82617,-1.16407 -0.43738,-0.54601 -0.71298,-1.06161 -0.82617,-1.54882 -0.10818,-0.49684 -0.0118,-1.03397 0.28906,-1.61133 l 0.73828,-1.41407 z m -8.28711,24.71875 c -1.14758,-0.0631 -2.18551,0.22496 -3.11132,0.86719 -1.48759,1.01358 -2.82122,3.07726 -4.00391,6.19141 -0.49696,1.30855 -0.88793,2.65937 -1.17187,4.04882 -0.29024,1.37546 -0.46968,2.37965 -0.53711,3.01563 l 4.12304,1.56641 0.19141,-0.50196 c -0.003,-0.51182 0.0328,-1.34042 0.10742,-2.48437 0.0645,-1.1478 0.26846,-2.17142 0.61133,-3.07422 0.57016,-1.50128 1.18384,-2.56893 1.8418,-3.20117 0.64781,-0.6361 1.44334,-0.77429 2.38671,-0.41602 l 0.0918,0.0332 c -0.52124,1.64754 -0.97023,3.25951 -1.34765,4.83399 -0.37743,1.57448 -0.53022,2.95484 -0.45899,4.14258 0.0674,1.19788 0.38942,2.22754 0.96875,3.08593 0.57933,0.8584 1.49255,1.5242 2.74024,1.99805 1.56214,0.59327 3.05431,0.5325 4.47461,-0.18164 1.42029,-0.71414 2.4383,-1.88285 3.05468,-3.50586 0.26197,-0.68978 0.4412,-1.34628 0.53906,-1.9707 0.10801,-0.62057 0.14279,-1.24688 0.10352,-1.87695 -0.0362,-0.45481 -0.12854,-0.96002 -0.27734,-1.51563 -0.14881,-0.55561 -0.27918,-1.02342 -0.39063,-1.40234 l 1.81055,0.6875 2.06445,-5.43164 -11.625,-4.41407 c -0.76839,-0.29182 -1.49699,-0.45625 -2.18555,-0.49414 z m 3.72852,7.29492 3.56055,1.35352 c 0.20337,0.56473 0.30898,1.17337 0.3164,1.82617 0.0113,0.64266 -0.0869,1.23739 -0.29492,1.78516 -0.26196,0.68978 -0.50027,1.17882 -0.71484,1.46875 -0.22472,0.28608 -0.48391,0.5078 -0.77539,0.66406 -0.29534,0.1664 -0.56622,0.23678 -0.8125,0.21289 -0.24628,-0.0239 -0.54731,-0.10149 -0.90235,-0.23633 -0.53762,-0.20417 -0.91412,-0.51066 -1.13086,-0.91797 -0.22302,-0.4213 -0.31683,-0.93947 -0.28125,-1.55273 0.0275,-0.50026 0.15485,-1.20082 0.38086,-2.10156 0.21588,-0.9046 0.43394,-1.73834 0.6543,-2.50196 z m -14.50781,11.54297 -4.45117,16.9375 3.83984,1.00977 1.48047,-5.63477 13.83789,3.63672 1.48828,-5.66601 -13.83594,-3.63868 1.48242,-5.63476 z m -5.48047,21.83789 -0.85156,5.79688 6.23047,0.91601 -0.98047,6.66797 -6.23047,-0.91797 -0.85352,5.79688 18.08399,2.66016 0.85156,-5.79688 -7.71289,-1.13477 0.98047,-6.66601 7.71289,1.13477 0.85351,-5.79688 z m 5.86719,24.95899 c -3.00494,-0.0649 -5.39454,0.75773 -7.16797,2.46679 -1.7732,1.69822 -2.69283,4.14072 -2.76172,7.33008 -0.0679,3.14597 0.74107,5.62223 2.42773,7.42774 1.6869,1.79466 4.04368,2.72369 7.07032,2.78906 3.00494,0.0649 5.39453,-0.75578 7.16797,-2.46484 1.76281,-1.72015 2.67767,-4.16437 2.74609,-7.33204 0.0684,-3.16766 -0.7406,-5.64392 -2.42774,-7.42773 -1.69774,-1.79489 -4.04974,-2.72416 -7.05468,-2.78906 z m -0.0977,6.07031 c 1.16075,0.0251 2.06904,0.142 2.72656,0.35156 0.64691,0.19848 1.19994,0.49305 1.65821,0.88282 0.41581,0.34543 0.71089,0.7637 0.88476,1.25586 0.16326,0.48106 0.23805,0.98797 0.22656,1.51953 -0.0134,0.61834 -0.12231,1.16839 -0.32812,1.65234 -0.20558,0.4731 -0.5245,0.87879 -0.95508,1.2168 -0.45251,0.34838 -1.04263,0.60667 -1.77344,0.77539 -0.74165,0.16848 -1.61134,0.24226 -2.60937,0.2207 -1.11736,-0.0241 -2.04412,-0.14709 -2.77735,-0.36914 -0.73298,-0.2329 -1.30731,-0.53326 -1.72265,-0.90039 -0.44695,-0.41122 -0.74031,-0.83428 -0.88281,-1.27149 -0.14227,-0.44805 -0.2075,-0.95542 -0.19532,-1.51953 0.0122,-0.5641 0.11559,-1.08808 0.31055,-1.57226 0.19496,-0.48419 0.51843,-0.89489 0.9707,-1.23242 0.44143,-0.33777 1.02677,-0.59583 1.75782,-0.77539 0.73104,-0.17957 1.63501,-0.25758 2.70898,-0.23438 z m 8.68164,15.62695 -11.42187,10.76172 c -0.2322,-0.33533 -0.59444,-0.66876 -1.08789,-0.99804 -0.50424,-0.32813 -1.35458,-0.72863 -2.55079,-1.20118 -1.20699,-0.47139 -2.06339,-0.9261 -2.56836,-1.36328 -0.50611,-0.44796 -0.80599,-1.11331 -0.90039,-1.99804 l -0.1914,-1.79688 -5.22852,0.55859 c 0.0219,0.205 0.0507,0.52235 0.0859,0.95508 0.0245,0.43388 0.0663,0.9263 0.125,1.47656 0.19801,1.85579 0.65917,3.21022 1.38281,4.06055 0.71285,0.85149 1.8415,1.61369 3.38672,2.28906 0.36599,0.15738 0.83374,0.35414 1.4043,0.58789 0.55861,0.22412 1.04443,0.42815 1.45703,0.61329 0.66493,0.30007 1.23195,0.59438 1.69922,0.88281 0.45647,0.28957 0.80781,0.56765 1.05469,0.83594 0.23493,0.25865 0.41315,0.55169 0.53515,0.87695 0.11122,0.32641 0.20557,0.74129 0.28125,1.24609 l -9.82422,1.04883 0.66211,6.21485 24.09961,-2.57227 -0.66406,-6.21484 -9.72656,1.03906 -0.16211,-1.52149 8.96679,-8.16015 z"
           id="five-1" />
      </g>
    </g>
  </g>
</svg>
