<?xml version="1.0" encoding="UTF-8" standalone="no"?>
<!-- Created with Inkscape (http://www.inkscape.org/) -->

<svg
   xmlns:dc="http://purl.org/dc/elements/1.1/"
   xmlns:cc="http://creativecommons.org/ns#"
   xmlns:rdf="http://www.w3.org/1999/02/22-rdf-syntax-ns#"
   xmlns:svg="http://www.w3.org/2000/svg"
   xmlns="http://www.w3.org/2000/svg"
   xmlns:xlink="http://www.w3.org/1999/xlink"
   xmlns:sodipodi="http://sodipodi.sourceforge.net/DTD/sodipodi-0.dtd"
   xmlns:inkscape="http://www.inkscape.org/namespaces/inkscape"
   width="90mm"
   height="50mm"
   viewBox="0 0 90 50"
   version="1.1"
   id="SVGRoot"
   sodipodi:docname="MPStudioGrad1.svg"
   inkscape:version="0.92.1 r15371">
  <sodipodi:namedview
     id="base"
     pagecolor="#ffffff"
     bordercolor="#666666"
     borderopacity="1.0"
     inkscape:pageopacity="0.0"
     inkscape:pageshadow="2"
     inkscape:zoom="1"
     inkscape:cx="103.10512"
     inkscape:cy="47.411255"
     inkscape:document-units="mm"
     inkscape:current-layer="g6004"
     showgrid="false"
     inkscape:window-width="1538"
     inkscape:window-height="877"
     inkscape:window-x="54"
     inkscape:window-y="-8"
     inkscape:window-maximized="1" />
  <defs
     id="defs6030">
    <linearGradient
       inkscape:collect="always"
       id="linearGradient8656">
      <stop
         style="stop-color:#ff6600;stop-opacity:1;"
         offset="0"
         id="stop8652" />
      <stop
         style="stop-color:#ff6600;stop-opacity:0;"
         offset="1"
         id="stop8654" />
    </linearGradient>
    <filter
       x="-0.15"
       width="1.3"
       y="-0.15"
       height="1.3"
       inkscape:menu-tooltip="Felt like texture with color turbulence and slightly darker at the edges"
       inkscape:menu="Textures"
       inkscape:label="Felt"
       style="color-interpolation-filters:sRGB;"
       id="filter6428">
      <feGaussianBlur
         result="result1"
         in="SourceGraphic"
         stdDeviation="2"
         id="feGaussianBlur6414" />
      <feTurbulence
         result="result0"
         numOctaves="5"
         baseFrequency="0.05"
         type="fractalNoise"
         id="feTurbulence6416" />
      <feDisplacementMap
         result="result2"
         scale="20"
         yChannelSelector="G"
         xChannelSelector="R"
         in="result1"
         in2="result0"
         id="feDisplacementMap6418" />
      <feGaussianBlur
         result="result4"
         in="result2"
         stdDeviation="5"
         id="feGaussianBlur6420" />
      <feComposite
         result="result6"
         k1="1"
         k3="1"
         k2="0.5"
         in="result0"
         in2="result4"
         operator="arithmetic"
         id="feComposite6422" />
      <feComposite
         in="result6"
         in2="result0"
         operator="in"
         result="result91"
         id="feComposite6424" />
      <feComposite
         operator="arithmetic"
         k1="1.5"
         in="result2"
         in2="result91"
         id="feComposite6426" />
    </filter>
    <linearGradient
       inkscape:collect="always"
       xlink:href="#linearGradient8656"
       id="linearGradient8658"
       x1="-57.553539"
       y1="123.11214"
       x2="27.453602"
       y2="166.69762"
       gradientUnits="userSpaceOnUse" />
  </defs>
  <metadata
     id="metadata6033">
    <rdf:RDF>
      <cc:Work
         rdf:about="">
        <dc:format>image/svg+xml</dc:format>
        <dc:type
           rdf:resource="http://purl.org/dc/dcmitype/StillImage" />
        <dc:title></dc:title>
      </cc:Work>
    </rdf:RDF>
  </metadata>
  <g
     id="layer1"
     inkscape:groupmode="layer"
     inkscape:label="Layer 1">
    <g
       id="g6004"
       transform="matrix(1.711866,0,0,1.711866,98.78853,-212.34523)"
       style="fill:#000000">
      <g
         id="g6583"
         style="fill-opacity:1;fill:url(#linearGradient8658)">
        <path
           style="fill:url(#linearGradient8658);fill-opacity:1.0;stroke:none;stroke-width:0.30987853;stroke-opacity:1"
           d="m -49.9772,124.20418 a 13.583811,16.623545 0 0 0 -6.782527,14.37203 13.583811,16.623545 0 0 0 6.821209,14.39285 h 6.539123 a 11.772621,14.407052 0 0 1 -11.549397,-14.39285 11.772621,14.407052 0 0 1 10.966779,-14.37203 z"
           id="path5729-9"
           inkscape:connector-curvature="0" />
        <path
           style="fill:url(#linearGradient8658);fill-opacity:1.0;stroke:none;stroke-width:0.26458332px;stroke-linecap:butt;stroke-linejoin:miter;stroke-opacity:1"
           d="m -29.622203,144.02104 c -0.05681,2.27378 -0.326472,3.81321 -1.380278,5.65289 h -0.697115 v 2.53059 l 1.029395,-5.3e-4 v -1.59938 l 4.983159,0.004 v 1.59577 h 1.02371 v -2.53059 h -0.797886 v -5.65289 z m 1.056267,0.91726 h 2.005562 v 4.73563 h -3.33158 c 0.839703,-1.4374 1.264777,-3.03553 1.326018,-4.73563 z"
           id="path5892-6"
           inkscape:connector-curvature="0" />
        <path
           style="fill:url(#linearGradient8658);fill-opacity:1.0;stroke:none;stroke-width:0.26458332px;stroke-linecap:butt;stroke-linejoin:miter;stroke-opacity:1"
           d="m -12.76225,144.02104 c -0.64417,0.006 -1.175768,0.0748 -1.590085,0.2465 -0.314613,0.13041 -0.55096,0.32394 -0.738454,0.53847 -0.236011,0.27004 -0.386625,0.622 -0.392227,1.03973 -0.0049,0.36345 0.04117,0.69465 0.168466,0.97772 0.120123,0.26711 0.297603,0.50428 0.586528,0.7028 0.227949,0.15662 0.506169,0.28824 0.905888,0.39739 l -2.248442,2.74608 h 1.308965 l 2.062922,-2.65513 1.310516,0.0114 v 2.64377 h 1.106392 v -6.64869 z m 0,0.89401 h 1.374077 v 2.23707 l -1.374077,-5.3e-4 c -0.300617,0 -0.567523,-0.0193 -0.789098,-0.0791 -0.231119,-0.0624 -0.413287,-0.16802 -0.542087,-0.31005 -0.08316,-0.0917 -0.144526,-0.17916 -0.182935,-0.29714 -0.05328,-0.1637 -0.06607,-0.36531 -0.06563,-0.53124 5.29e-4,-0.14928 0.03834,-0.32477 0.113689,-0.4718 0.06485,-0.12653 0.149079,-0.22333 0.283186,-0.31213 0.111262,-0.0737 0.25165,-0.14447 0.414446,-0.18086 0.213696,-0.0469 0.474728,-0.0543 0.768429,-0.0543 z"
           id="path5935-2"
           inkscape:connector-curvature="0" />
        <path
           style="fill:url(#linearGradient8658);fill-opacity:1.0;stroke:none;stroke-width:0.23030551;stroke-opacity:1"
           d="m -51.965486,140.85959 v 1.72186 l 9.41987,0.0334 v 10.3942 h 1.42194 v -10.3942 l 30.858644,-0.0619 v -1.72186 z"
           id="rect5788-7"
           inkscape:connector-curvature="0"
           sodipodi:nodetypes="ccccccccc" />
        <path
           inkscape:connector-curvature="0"
           style="fill:url(#linearGradient8658);stroke-width:0.13811147;fill-opacity:1.0"
           d="m -49.710815,127.23 c -0.829952,1.72511 -1.306779,3.72231 -1.306779,5.85351 0,2.35504 0.581658,4.54676 1.579787,6.38775 h 1.664066 c -1.1832,-1.74675 -1.893106,-3.96792 -1.893106,-6.38775 9.63e-4,-1.38436 0.238772,-2.75393 0.699013,-4.02495 h 6.351851 v 10.4127 h 1.488135 v -9.21556 l 2.68624,4.99122 -0.297251,0.55219 1.094302,0.98481 c 0.274724,-0.24017 0.777549,-0.6828 1.128389,-0.98481 l -0.297226,-0.55219 3.440819,-6.39304 c 0.512804,1.32651 0.780093,2.76906 0.783699,4.22963 0,2.41983 -0.709893,4.641 -1.893093,6.38775 h 1.664326 c 0.998079,-1.84096 1.579786,-4.03276 1.579799,-6.38775 -1.3e-5,-2.13115 -0.476914,-4.12843 -1.30678,-5.85351 h -1.610465 c 0.0062,0.009 0.0086,0.0163 0.01581,0.0245 l -3.487257,6.47961 -3.500336,-6.50405 z"
           id="path3688-1-1-9-0" />
        <path
           style="fill:url(#linearGradient8658);fill-opacity:1.0;stroke:none;stroke-width:0.26458332px;stroke-linecap:butt;stroke-linejoin:miter;stroke-opacity:1"
           d="m -38.610416,143.99654 1.207575,0.0244 2.043762,4.93032 2.058809,-4.93032 h 1.146598 l -3.800292,8.94906 h -1.083271 l 1.086382,-2.6016 z"
           id="path5862-9"
           inkscape:connector-curvature="0" />
        <path
           style="fill:url(#linearGradient8658);fill-opacity:1.0;stroke:none;stroke-width:0.26458332px;stroke-linecap:butt;stroke-linejoin:miter;stroke-opacity:1"
           d="m -23.116705,150.66959 v -6.64862 h 1.101735 v 4.92787 l 3.450072,-4.92787 h 1.02761 v 6.64862 h -1.101625 v -4.97739 l -3.470018,4.97739 z"
           id="path5913-6"
           inkscape:connector-curvature="0" />
      </g>
    </g>
  </g>
</svg>
